<svg xmlns="http://www.w3.org/2000/svg" xmlns:xlink="http://www.w3.org/1999/xlink" width="500" zoomAndPan="magnify" viewBox="0 0 375 374.999991" height="500" preserveAspectRatio="xMidYMid meet" version="1.0"><defs><clipPath id="e3d6834030"><path d="M 41 274 L 69 274 L 69 328.5 L 41 328.5 Z M 41 274 " clip-rule="nonzero"/></clipPath><clipPath id="ce8db0278d"><path d="M 91 274 L 120 274 L 120 328.5 L 91 328.5 Z M 91 274 " clip-rule="nonzero"/></clipPath><clipPath id="2c8d383405"><path d="M 162 287 L 244 287 L 244 328.5 L 162 328.5 Z M 162 287 " clip-rule="nonzero"/></clipPath><clipPath id="2ce3e17b9a"><path d="M 271 287 L 353 287 L 353 328.5 L 271 328.5 Z M 271 287 " clip-rule="nonzero"/></clipPath></defs><g clip-path="url(#e3d6834030)"><path fill="#1364d8" d="M 68.628906 284.289062 C 68.628906 285.96875 68.628906 328.5 68.628906 328.5 L 41.238281 328.5 C 41.238281 328.5 44.828125 303.316406 59.800781 315.628906 L 59.800781 274.777344 Z M 68.628906 284.289062 " fill-opacity="1" fill-rule="nonzero"/></g><g clip-path="url(#ce8db0278d)"><path fill="#1364d8" d="M 91.855469 284.289062 C 91.855469 285.96875 91.855469 328.5 91.855469 328.5 L 119.246094 328.5 C 119.246094 328.5 115.65625 303.316406 100.679688 315.628906 L 100.679688 274.777344 Z M 91.855469 284.289062 " fill-opacity="1" fill-rule="nonzero"/></g><g clip-path="url(#2c8d383405)"><path fill="#1364d8" d="M 243.039062 290.445312 L 243.039062 328.5 L 162.539062 328.5 C 162.539062 328.5 199.996094 298.28125 231.296875 315.628906 L 232.417969 287.089844 Z M 243.039062 290.445312 " fill-opacity="1" fill-rule="nonzero"/></g><g clip-path="url(#2ce3e17b9a)"><path fill="#1364d8" d="M 271.546875 290.445312 L 271.546875 328.5 L 352.042969 328.5 C 352.042969 328.5 314.589844 298.28125 283.285156 315.628906 L 282.167969 287.089844 Z M 271.546875 290.445312 " fill-opacity="1" fill-rule="nonzero"/></g><path fill="#3075ff" d="M 370.300781 178.195312 C 373.816406 160.878906 375.007812 143.066406 373.882812 124.761719 C 373.324219 120.535156 372.828125 116.097656 372.40625 111.453125 C 371.984375 106.8125 371.070312 102.375 369.667969 98.148438 C 367.414062 84.914062 363.476562 72.453125 357.851562 60.765625 C 352.226562 49.078125 343.789062 38.023438 332.535156 27.601562 C 318.1875 14.367188 302.4375 6.203125 285.28125 3.105469 C 268.117188 0.0078125 251.3125 0.851562 234.855469 5.636719 C 218.402344 10.425781 203.351562 18.589844 189.707031 30.136719 C 176.0625 41.683594 165.585938 55.488281 158.277344 71.53125 C 148.425781 93.222656 142.171875 114.835938 139.496094 136.378906 C 136.824219 157.921875 138.867188 180.101562 145.617188 202.910156 C 149.289062 215.515625 154.308594 227.507812 160.671875 238.890625 C 151.949219 245.453125 143.582031 252.46875 137.164062 261.339844 C 136.660156 262.042969 136.179688 262.757812 135.71875 263.480469 C 128.394531 253.972656 119.582031 245.757812 110.992188 237.34375 C 112.214844 217.09375 113.390625 197.089844 114.511719 177.347656 C 115.828125 154.121094 117.074219 130.542969 118.246094 106.613281 C 118.726562 93.667969 119.035156 80.859375 119.175781 68.1875 C 119.316406 55.519531 119.246094 42.855469 118.964844 30.183594 C 118.40625 21.175781 115.171875 14.136719 109.273438 9.066406 C 103.378906 4 95.929688 1.183594 86.945312 0.621094 C 80.488281 0.621094 74.941406 2.03125 70.308594 4.84375 C 65.667969 7.660156 61.53125 11.601562 57.878906 16.667969 C 50.285156 27.933594 42.546875 39.054688 34.675781 50.027344 C 26.800781 61.007812 17.378906 70.578125 6.40625 78.742188 C 3.3125 80.996094 1.414062 83.738281 0.710938 86.976562 C 0.00390625 90.214844 0.359375 93.527344 1.765625 96.90625 C 3.453125 100.847656 5.703125 103.871094 8.515625 105.984375 C 11.332031 108.097656 14.707031 108.871094 18.644531 108.308594 C 21.738281 108.027344 24.972656 107.464844 28.347656 106.621094 C 31.722656 105.777344 34.957031 104.648438 38.054688 103.242188 C 40.582031 102.117188 43.117188 100.707031 45.648438 99.015625 C 48.175781 97.328125 51.410156 95.355469 55.351562 93.097656 C 54.75 99.015625 54.300781 104.292969 54.003906 108.9375 C 53.703125 113.582031 53.554688 118.15625 53.554688 122.660156 C 52.707031 141.804688 51.933594 160.664062 51.230469 179.246094 C 50.527344 197.828125 50.035156 216.691406 49.753906 235.828125 C 49.683594 237.382812 49.644531 238.933594 49.632812 240.488281 C 38.148438 250.933594 28.371094 263.261719 23.199219 278.105469 C 22.226562 280.898438 21.460938 283.757812 20.875 286.65625 C 20.472656 288.648438 21.417969 290.679688 23.476562 291.246094 C 25.332031 291.753906 27.65625 290.632812 28.058594 288.640625 C 28.550781 286.21875 29.171875 283.828125 29.921875 281.472656 C 30.277344 280.363281 30.667969 279.265625 31.078125 278.171875 C 31.285156 277.632812 31.5 277.09375 31.71875 276.554688 C 31.738281 276.507812 31.753906 276.46875 31.769531 276.433594 C 31.777344 276.414062 31.785156 276.398438 31.792969 276.378906 C 31.945312 276.027344 32.101562 275.675781 32.257812 275.324219 C 34.214844 270.953125 36.644531 266.804688 39.382812 262.882812 C 40.039062 261.9375 40.722656 261.015625 41.414062 260.097656 C 41.449219 260.054688 41.476562 260.019531 41.5 259.988281 C 41.511719 259.972656 41.519531 259.960938 41.535156 259.941406 C 41.710938 259.714844 41.890625 259.488281 42.066406 259.265625 C 42.484375 258.738281 42.910156 258.21875 43.339844 257.699219 C 44.871094 255.847656 46.480469 254.058594 48.136719 252.3125 C 48.75 251.667969 49.371094 251.03125 50 250.402344 C 50.105469 251.738281 50.234375 253.078125 50.386719 254.414062 C 51.089844 260.609375 52.144531 266.800781 53.554688 272.988281 C 54.957031 280.308594 57.902344 285.730469 62.386719 289.25 C 66.871094 292.769531 72.339844 294.667969 78.792969 294.949219 C 85.519531 294.949219 91.269531 293.261719 96.039062 289.882812 C 100.804688 286.503906 104.308594 281.152344 106.554688 273.832031 C 108.515625 265.949219 109.777344 257.367188 110.339844 248.078125 C 110.359375 247.773438 110.378906 247.472656 110.394531 247.171875 C 111.734375 248.476562 113.070312 249.78125 114.398438 251.09375 C 118.011719 254.667969 121.5625 258.308594 124.933594 262.113281 C 126.589844 263.976562 128.1875 265.890625 129.726562 267.851562 C 129.761719 267.898438 129.792969 267.933594 129.820312 267.96875 C 129.84375 267.996094 129.867188 268.03125 129.898438 268.070312 C 130.085938 268.316406 130.269531 268.5625 130.453125 268.808594 C 130.824219 269.296875 131.183594 269.792969 131.542969 270.289062 C 131.730469 270.550781 131.910156 270.816406 132.097656 271.078125 C 131.527344 272.816406 131.105469 274.609375 130.863281 276.453125 C 130.601562 278.476562 132.757812 280.183594 134.589844 280.183594 C 136.820312 280.183594 138.054688 278.472656 138.316406 276.453125 C 138.144531 277.800781 138.355469 276.335938 138.414062 276.023438 C 138.492188 275.613281 138.589844 275.210938 138.691406 274.804688 C 138.710938 274.742188 138.726562 274.679688 138.746094 274.617188 C 140.164062 273.757812 140.921875 271.875 140.40625 270.292969 C 140.824219 269.464844 141.28125 268.660156 141.761719 267.867188 C 142.253906 267.058594 142.777344 266.273438 143.320312 265.5 C 143.597656 265.101562 143.882812 264.714844 144.175781 264.324219 C 144.207031 264.277344 144.273438 264.191406 144.335938 264.109375 C 144.492188 263.914062 144.644531 263.71875 144.800781 263.523438 C 146.132812 261.863281 147.5625 260.285156 149.039062 258.753906 C 152.144531 255.53125 155.503906 252.5625 158.953125 249.71875 C 159.789062 249.027344 160.632812 248.347656 161.480469 247.671875 C 161.902344 247.335938 162.324219 247.003906 162.75 246.671875 C 162.960938 246.503906 163.175781 246.339844 163.386719 246.175781 C 163.421875 246.144531 163.453125 246.121094 163.480469 246.097656 C 163.550781 246.046875 163.621094 245.992188 163.691406 245.9375 C 163.960938 245.730469 164.234375 245.527344 164.507812 245.316406 C 171.34375 255.898438 180.519531 265.703125 192.03125 274.722656 C 211.4375 289.929688 231.96875 297.671875 253.628906 297.953125 C 275.289062 298.234375 295.40625 291.195312 313.96875 276.828125 C 322.964844 270.070312 330.5625 262.683594 336.753906 254.65625 C 337.601562 253.554688 338.433594 252.445312 339.25 251.324219 C 339.839844 251.949219 340.425781 252.582031 341 253.222656 C 342.453125 254.835938 343.851562 256.492188 345.21875 258.179688 C 345.5625 258.601562 345.902344 259.027344 346.238281 259.457031 C 346.375 259.628906 346.507812 259.800781 346.644531 259.972656 C 346.699219 260.042969 346.742188 260.097656 346.773438 260.136719 C 346.800781 260.171875 346.828125 260.207031 346.863281 260.253906 C 347.527344 261.121094 348.179688 261.996094 348.828125 262.878906 C 354 269.929688 358.558594 277.414062 362.800781 285.054688 C 363.789062 286.828125 366.175781 287.402344 367.902344 286.390625 C 369.679688 285.347656 370.226562 283.066406 369.238281 281.289062 C 362.074219 268.398438 353.902344 255.699219 343.59375 245.058594 C 346.972656 239.921875 350.039062 234.601562 352.792969 229.097656 C 360.945312 212.484375 366.785156 195.515625 370.300781 178.195312 Z M 285.703125 224.453125 C 278.101562 237.40625 269.242188 244.3125 259.117188 245.152344 C 248.992188 245.996094 239.847656 239.941406 231.695312 226.984375 C 224.097656 214.878906 218.890625 202.769531 216.078125 190.660156 C 213.265625 178.550781 211.859375 166.15625 211.859375 153.484375 C 212.421875 142.785156 213.757812 132.371094 215.871094 122.226562 C 217.980469 112.089844 221.285156 101.953125 225.789062 91.8125 C 228.035156 88.152344 230.285156 84.632812 232.539062 81.253906 C 234.785156 77.875 237.457031 74.496094 240.550781 71.109375 C 246.738281 64.914062 253.769531 61.964844 261.648438 62.246094 C 269.523438 62.527344 276.839844 65.90625 283.589844 72.382812 C 286.121094 75.480469 288.441406 78.644531 290.554688 81.882812 C 292.664062 85.121094 294.421875 88.433594 295.828125 91.8125 C 314.390625 137.996094 311.015625 182.210938 285.703125 224.453125 Z M 285.703125 224.453125 " fill-opacity="1" fill-rule="nonzero"/><path fill="#141414" d="M 73.847656 55.21875 C 73.847656 56.066406 73.765625 56.910156 73.597656 57.742188 C 73.433594 58.578125 73.1875 59.386719 72.863281 60.171875 C 72.539062 60.957031 72.140625 61.703125 71.667969 62.410156 C 71.195312 63.117188 70.660156 63.769531 70.058594 64.371094 C 69.460938 64.972656 68.804688 65.507812 68.101562 65.980469 C 67.394531 66.453125 66.648438 66.851562 65.863281 67.175781 C 65.082031 67.503906 64.273438 67.75 63.441406 67.914062 C 62.605469 68.078125 61.765625 68.164062 60.917969 68.164062 C 60.066406 68.164062 59.226562 68.078125 58.394531 67.914062 C 57.5625 67.75 56.753906 67.503906 55.96875 67.175781 C 55.183594 66.851562 54.4375 66.453125 53.734375 65.980469 C 53.027344 65.507812 52.375 64.972656 51.773438 64.371094 C 51.171875 63.769531 50.636719 63.117188 50.167969 62.410156 C 49.695312 61.703125 49.296875 60.957031 48.972656 60.171875 C 48.644531 59.386719 48.402344 58.578125 48.234375 57.742188 C 48.070312 56.910156 47.988281 56.066406 47.988281 55.21875 C 47.988281 54.367188 48.070312 53.527344 48.234375 52.691406 C 48.402344 51.859375 48.644531 51.050781 48.972656 50.265625 C 49.296875 49.480469 49.695312 48.734375 50.167969 48.027344 C 50.636719 47.320312 51.171875 46.664062 51.773438 46.066406 C 52.375 45.464844 53.027344 44.925781 53.734375 44.453125 C 54.4375 43.984375 55.183594 43.582031 55.96875 43.257812 C 56.753906 42.933594 57.5625 42.6875 58.394531 42.523438 C 59.226562 42.355469 60.066406 42.273438 60.917969 42.273438 C 61.765625 42.273438 62.605469 42.355469 63.441406 42.523438 C 64.273438 42.6875 65.082031 42.933594 65.863281 43.257812 C 66.648438 43.582031 67.394531 43.984375 68.101562 44.453125 C 68.804688 44.925781 69.460938 45.464844 70.058594 46.066406 C 70.660156 46.664062 71.195312 47.320312 71.667969 48.027344 C 72.140625 48.734375 72.539062 49.480469 72.863281 50.265625 C 73.1875 51.050781 73.433594 51.859375 73.597656 52.691406 C 73.765625 53.527344 73.847656 54.367188 73.847656 55.21875 Z M 73.847656 55.21875 " fill-opacity="1" fill-rule="nonzero"/><path fill="#ffffff" d="M 73.507812 55.21875 C 73.507812 56.046875 73.425781 56.867188 73.265625 57.675781 C 73.105469 58.488281 72.863281 59.277344 72.546875 60.042969 C 72.230469 60.804688 71.84375 61.53125 71.386719 62.21875 C 70.925781 62.910156 70.402344 63.546875 69.820312 64.128906 C 69.234375 64.714844 68.597656 65.238281 67.910156 65.699219 C 67.222656 66.15625 66.5 66.546875 65.734375 66.863281 C 64.972656 67.179688 64.183594 67.417969 63.375 67.578125 C 62.5625 67.742188 61.742188 67.824219 60.917969 67.824219 C 60.089844 67.824219 59.273438 67.742188 58.460938 67.578125 C 57.648438 67.417969 56.863281 67.179688 56.097656 66.863281 C 55.335938 66.546875 54.609375 66.15625 53.921875 65.699219 C 53.234375 65.238281 52.597656 64.714844 52.015625 64.128906 C 51.429688 63.546875 50.910156 62.910156 50.449219 62.21875 C 49.988281 61.53125 49.601562 60.804688 49.285156 60.042969 C 48.96875 59.277344 48.730469 58.488281 48.570312 57.675781 C 48.40625 56.867188 48.328125 56.046875 48.328125 55.21875 C 48.328125 54.390625 48.40625 53.570312 48.570312 52.757812 C 48.730469 51.949219 48.96875 51.160156 49.285156 50.394531 C 49.601562 49.628906 49.988281 48.902344 50.449219 48.214844 C 50.910156 47.527344 51.429688 46.890625 52.015625 46.304688 C 52.597656 45.71875 53.234375 45.199219 53.921875 44.738281 C 54.609375 44.277344 55.335938 43.890625 56.097656 43.574219 C 56.863281 43.257812 57.648438 43.015625 58.460938 42.855469 C 59.273438 42.695312 60.089844 42.613281 60.917969 42.613281 C 61.742188 42.613281 62.5625 42.695312 63.375 42.855469 C 64.183594 43.015625 64.972656 43.257812 65.734375 43.574219 C 66.5 43.890625 67.222656 44.277344 67.910156 44.738281 C 68.597656 45.199219 69.234375 45.71875 69.820312 46.304688 C 70.402344 46.890625 70.925781 47.527344 71.386719 48.214844 C 71.84375 48.902344 72.230469 49.628906 72.546875 50.394531 C 72.863281 51.160156 73.105469 51.949219 73.265625 52.757812 C 73.425781 53.570312 73.507812 54.390625 73.507812 55.21875 Z M 73.507812 55.21875 " fill-opacity="1" fill-rule="nonzero"/><path fill="#141414" d="M 70.105469 55.21875 C 70.105469 55.820312 70.046875 56.421875 69.929688 57.011719 C 69.808594 57.605469 69.636719 58.179688 69.40625 58.738281 C 69.175781 59.296875 68.890625 59.824219 68.554688 60.328125 C 68.222656 60.832031 67.839844 61.292969 67.414062 61.722656 C 66.988281 62.148438 66.523438 62.53125 66.019531 62.867188 C 65.519531 63.203125 64.992188 63.484375 64.433594 63.714844 C 63.875 63.945312 63.300781 64.121094 62.710938 64.238281 C 62.117188 64.355469 61.519531 64.414062 60.917969 64.414062 C 60.3125 64.414062 59.714844 64.355469 59.125 64.238281 C 58.535156 64.121094 57.957031 63.945312 57.402344 63.714844 C 56.84375 63.484375 56.316406 63.203125 55.8125 62.867188 C 55.3125 62.53125 54.847656 62.148438 54.421875 61.722656 C 53.996094 61.292969 53.613281 60.832031 53.277344 60.328125 C 52.941406 59.824219 52.660156 59.296875 52.429688 58.738281 C 52.199219 58.179688 52.023438 57.605469 51.90625 57.011719 C 51.789062 56.421875 51.730469 55.820312 51.730469 55.21875 C 51.730469 54.613281 51.789062 54.015625 51.90625 53.421875 C 52.023438 52.832031 52.199219 52.257812 52.429688 51.699219 C 52.660156 51.140625 52.941406 50.609375 53.277344 50.109375 C 53.613281 49.605469 53.996094 49.140625 54.421875 48.714844 C 54.847656 48.289062 55.3125 47.90625 55.8125 47.570312 C 56.316406 47.234375 56.84375 46.953125 57.402344 46.71875 C 57.957031 46.488281 58.535156 46.316406 59.125 46.195312 C 59.714844 46.078125 60.3125 46.019531 60.917969 46.019531 C 61.519531 46.019531 62.117188 46.078125 62.710938 46.195312 C 63.300781 46.316406 63.875 46.488281 64.433594 46.71875 C 64.992188 46.953125 65.519531 47.234375 66.019531 47.570312 C 66.523438 47.90625 66.988281 48.289062 67.414062 48.714844 C 67.839844 49.140625 68.222656 49.605469 68.554688 50.109375 C 68.890625 50.609375 69.175781 51.140625 69.40625 51.699219 C 69.636719 52.257812 69.808594 52.832031 69.929688 53.421875 C 70.046875 54.015625 70.105469 54.613281 70.105469 55.21875 Z M 70.105469 55.21875 " fill-opacity="1" fill-rule="nonzero"/><path fill="#ffffff" d="M 68.855469 48.800781 C 68.855469 49.074219 68.832031 49.34375 68.777344 49.609375 C 68.722656 49.878906 68.644531 50.136719 68.542969 50.386719 C 68.4375 50.640625 68.308594 50.878906 68.160156 51.105469 C 68.007812 51.332031 67.835938 51.539062 67.644531 51.734375 C 67.453125 51.925781 67.242188 52.097656 67.015625 52.25 C 66.789062 52.398438 66.550781 52.527344 66.300781 52.632812 C 66.050781 52.734375 65.792969 52.816406 65.523438 52.867188 C 65.257812 52.921875 64.988281 52.949219 64.71875 52.949219 C 64.445312 52.949219 64.175781 52.921875 63.910156 52.867188 C 63.640625 52.816406 63.382812 52.734375 63.132812 52.632812 C 62.882812 52.527344 62.644531 52.398438 62.417969 52.25 C 62.191406 52.097656 61.980469 51.925781 61.789062 51.734375 C 61.597656 51.539062 61.425781 51.332031 61.273438 51.105469 C 61.125 50.878906 60.996094 50.640625 60.890625 50.386719 C 60.789062 50.136719 60.710938 49.878906 60.65625 49.609375 C 60.601562 49.34375 60.578125 49.074219 60.578125 48.800781 C 60.578125 48.53125 60.601562 48.261719 60.65625 47.992188 C 60.710938 47.726562 60.789062 47.46875 60.890625 47.214844 C 60.996094 46.964844 61.125 46.726562 61.273438 46.5 C 61.425781 46.273438 61.597656 46.0625 61.789062 45.871094 C 61.980469 45.679688 62.191406 45.507812 62.417969 45.355469 C 62.644531 45.207031 62.882812 45.078125 63.132812 44.972656 C 63.382812 44.871094 63.640625 44.789062 63.910156 44.738281 C 64.175781 44.683594 64.445312 44.65625 64.71875 44.65625 C 64.988281 44.65625 65.257812 44.683594 65.523438 44.738281 C 65.792969 44.789062 66.050781 44.871094 66.300781 44.972656 C 66.550781 45.078125 66.789062 45.207031 67.015625 45.355469 C 67.242188 45.507812 67.453125 45.679688 67.644531 45.871094 C 67.835938 46.0625 68.007812 46.273438 68.160156 46.5 C 68.308594 46.726562 68.4375 46.964844 68.542969 47.214844 C 68.644531 47.46875 68.722656 47.726562 68.777344 47.992188 C 68.832031 48.261719 68.855469 48.53125 68.855469 48.800781 Z M 68.855469 48.800781 " fill-opacity="1" fill-rule="nonzero"/><path fill="#141414" d="M 112.417969 55.21875 C 112.417969 56.066406 112.335938 56.910156 112.171875 57.742188 C 112.003906 58.578125 111.757812 59.386719 111.433594 60.171875 C 111.109375 60.957031 110.710938 61.703125 110.238281 62.410156 C 109.769531 63.117188 109.230469 63.769531 108.632812 64.371094 C 108.03125 64.972656 107.378906 65.507812 106.671875 65.980469 C 105.964844 66.453125 105.222656 66.851562 104.4375 67.175781 C 103.652344 67.503906 102.84375 67.75 102.011719 67.914062 C 101.179688 68.078125 100.335938 68.164062 99.488281 68.164062 C 98.640625 68.164062 97.796875 68.078125 96.964844 67.914062 C 96.132812 67.75 95.324219 67.503906 94.539062 67.175781 C 93.757812 66.851562 93.011719 66.453125 92.304688 65.980469 C 91.597656 65.507812 90.945312 64.972656 90.34375 64.371094 C 89.746094 63.769531 89.210938 63.117188 88.738281 62.410156 C 88.265625 61.703125 87.867188 60.957031 87.542969 60.171875 C 87.21875 59.386719 86.972656 58.578125 86.808594 57.742188 C 86.640625 56.910156 86.558594 56.066406 86.558594 55.21875 C 86.558594 54.367188 86.640625 53.527344 86.808594 52.691406 C 86.972656 51.859375 87.21875 51.050781 87.542969 50.265625 C 87.867188 49.480469 88.265625 48.734375 88.738281 48.027344 C 89.210938 47.320312 89.746094 46.664062 90.34375 46.066406 C 90.945312 45.464844 91.597656 44.925781 92.304688 44.453125 C 93.011719 43.984375 93.757812 43.582031 94.539062 43.257812 C 95.324219 42.933594 96.132812 42.6875 96.964844 42.523438 C 97.796875 42.355469 98.640625 42.273438 99.488281 42.273438 C 100.335938 42.273438 101.179688 42.355469 102.011719 42.523438 C 102.84375 42.6875 103.652344 42.933594 104.4375 43.257812 C 105.222656 43.582031 105.964844 43.984375 106.671875 44.453125 C 107.378906 44.925781 108.03125 45.464844 108.632812 46.066406 C 109.230469 46.664062 109.769531 47.320312 110.238281 48.027344 C 110.710938 48.734375 111.109375 49.480469 111.433594 50.265625 C 111.757812 51.050781 112.003906 51.859375 112.171875 52.691406 C 112.335938 53.527344 112.417969 54.367188 112.417969 55.21875 Z M 112.417969 55.21875 " fill-opacity="1" fill-rule="nonzero"/><path fill="#ffffff" d="M 112.078125 55.21875 C 112.078125 56.046875 111.996094 56.867188 111.835938 57.675781 C 111.675781 58.488281 111.4375 59.277344 111.121094 60.042969 C 110.804688 60.804688 110.414062 61.53125 109.957031 62.21875 C 109.496094 62.910156 108.976562 63.546875 108.390625 64.128906 C 107.804688 64.714844 107.171875 65.238281 106.484375 65.699219 C 105.796875 66.15625 105.070312 66.546875 104.304688 66.863281 C 103.542969 67.179688 102.753906 67.417969 101.945312 67.578125 C 101.132812 67.742188 100.316406 67.824219 99.488281 67.824219 C 98.660156 67.824219 97.84375 67.742188 97.03125 67.578125 C 96.222656 67.417969 95.433594 67.179688 94.671875 66.863281 C 93.90625 66.546875 93.179688 66.15625 92.492188 65.699219 C 91.808594 65.238281 91.171875 64.714844 90.585938 64.128906 C 90 63.546875 89.480469 62.910156 89.019531 62.21875 C 88.5625 61.53125 88.171875 60.804688 87.855469 60.042969 C 87.539062 59.277344 87.300781 58.488281 87.140625 57.675781 C 86.980469 56.867188 86.898438 56.046875 86.898438 55.21875 C 86.898438 54.390625 86.980469 53.570312 87.140625 52.757812 C 87.300781 51.949219 87.539062 51.160156 87.855469 50.394531 C 88.171875 49.628906 88.5625 48.902344 89.019531 48.214844 C 89.480469 47.527344 90 46.890625 90.585938 46.304688 C 91.171875 45.71875 91.808594 45.199219 92.492188 44.738281 C 93.179688 44.277344 93.90625 43.890625 94.671875 43.574219 C 95.433594 43.257812 96.222656 43.015625 97.03125 42.855469 C 97.84375 42.695312 98.660156 42.613281 99.488281 42.613281 C 100.316406 42.613281 101.132812 42.695312 101.945312 42.855469 C 102.753906 43.015625 103.542969 43.257812 104.304688 43.574219 C 105.070312 43.890625 105.796875 44.277344 106.484375 44.738281 C 107.171875 45.199219 107.804688 45.71875 108.390625 46.304688 C 108.976562 46.890625 109.496094 47.527344 109.957031 48.214844 C 110.414062 48.902344 110.804688 49.628906 111.121094 50.394531 C 111.4375 51.160156 111.675781 51.949219 111.835938 52.757812 C 111.996094 53.570312 112.078125 54.390625 112.078125 55.21875 Z M 112.078125 55.21875 " fill-opacity="1" fill-rule="nonzero"/><path fill="#141414" d="M 108.675781 55.21875 C 108.675781 55.820312 108.617188 56.421875 108.5 57.011719 C 108.382812 57.605469 108.207031 58.179688 107.976562 58.738281 C 107.746094 59.296875 107.460938 59.824219 107.128906 60.328125 C 106.792969 60.832031 106.410156 61.292969 105.984375 61.722656 C 105.558594 62.148438 105.09375 62.53125 104.59375 62.867188 C 104.089844 63.203125 103.5625 63.484375 103.003906 63.714844 C 102.445312 63.945312 101.871094 64.121094 101.28125 64.238281 C 100.6875 64.355469 100.09375 64.414062 99.488281 64.414062 C 98.886719 64.414062 98.289062 64.355469 97.695312 64.238281 C 97.105469 64.121094 96.53125 63.945312 95.972656 63.714844 C 95.414062 63.484375 94.886719 63.203125 94.382812 62.867188 C 93.882812 62.53125 93.417969 62.148438 92.992188 61.722656 C 92.566406 61.292969 92.183594 60.832031 91.851562 60.328125 C 91.515625 59.824219 91.230469 59.296875 91 58.738281 C 90.769531 58.179688 90.59375 57.605469 90.476562 57.011719 C 90.359375 56.421875 90.300781 55.820312 90.300781 55.21875 C 90.300781 54.613281 90.359375 54.015625 90.476562 53.421875 C 90.59375 52.832031 90.769531 52.257812 91 51.699219 C 91.230469 51.140625 91.515625 50.609375 91.851562 50.109375 C 92.183594 49.605469 92.566406 49.140625 92.992188 48.714844 C 93.417969 48.289062 93.882812 47.90625 94.382812 47.570312 C 94.886719 47.234375 95.414062 46.953125 95.972656 46.71875 C 96.53125 46.488281 97.105469 46.316406 97.695312 46.195312 C 98.289062 46.078125 98.886719 46.019531 99.488281 46.019531 C 100.09375 46.019531 100.6875 46.078125 101.28125 46.195312 C 101.871094 46.316406 102.445312 46.488281 103.003906 46.71875 C 103.5625 46.953125 104.089844 47.234375 104.59375 47.570312 C 105.09375 47.90625 105.558594 48.289062 105.984375 48.714844 C 106.410156 49.140625 106.792969 49.605469 107.128906 50.109375 C 107.460938 50.609375 107.746094 51.140625 107.976562 51.699219 C 108.207031 52.257812 108.382812 52.832031 108.5 53.421875 C 108.617188 54.015625 108.675781 54.613281 108.675781 55.21875 Z M 108.675781 55.21875 " fill-opacity="1" fill-rule="nonzero"/><path fill="#ffffff" d="M 107.429688 48.800781 C 107.429688 49.074219 107.402344 49.34375 107.347656 49.609375 C 107.296875 49.878906 107.21875 50.136719 107.113281 50.386719 C 107.007812 50.640625 106.882812 50.878906 106.730469 51.105469 C 106.578125 51.332031 106.40625 51.539062 106.214844 51.734375 C 106.023438 51.925781 105.8125 52.097656 105.589844 52.25 C 105.363281 52.398438 105.125 52.527344 104.871094 52.632812 C 104.621094 52.734375 104.363281 52.816406 104.097656 52.867188 C 103.828125 52.921875 103.558594 52.949219 103.289062 52.949219 C 103.015625 52.949219 102.746094 52.921875 102.480469 52.867188 C 102.214844 52.816406 101.957031 52.734375 101.703125 52.632812 C 101.453125 52.527344 101.214844 52.398438 100.988281 52.25 C 100.761719 52.097656 100.554688 51.925781 100.359375 51.734375 C 100.167969 51.539062 99.996094 51.332031 99.847656 51.105469 C 99.695312 50.878906 99.566406 50.640625 99.464844 50.386719 C 99.359375 50.136719 99.28125 49.878906 99.226562 49.609375 C 99.175781 49.34375 99.148438 49.074219 99.148438 48.800781 C 99.148438 48.53125 99.175781 48.261719 99.226562 47.992188 C 99.28125 47.726562 99.359375 47.46875 99.464844 47.214844 C 99.566406 46.964844 99.695312 46.726562 99.847656 46.5 C 99.996094 46.273438 100.167969 46.0625 100.359375 45.871094 C 100.554688 45.679688 100.761719 45.507812 100.988281 45.355469 C 101.214844 45.207031 101.453125 45.078125 101.703125 44.972656 C 101.957031 44.871094 102.214844 44.789062 102.480469 44.738281 C 102.746094 44.683594 103.015625 44.65625 103.289062 44.65625 C 103.558594 44.65625 103.828125 44.683594 104.097656 44.738281 C 104.363281 44.789062 104.621094 44.871094 104.871094 44.972656 C 105.125 45.078125 105.363281 45.207031 105.589844 45.355469 C 105.8125 45.507812 106.023438 45.679688 106.214844 45.871094 C 106.40625 46.0625 106.578125 46.273438 106.730469 46.5 C 106.882812 46.726562 107.007812 46.964844 107.113281 47.214844 C 107.21875 47.46875 107.296875 47.726562 107.347656 47.992188 C 107.402344 48.261719 107.429688 48.53125 107.429688 48.800781 Z M 107.429688 48.800781 " fill-opacity="1" fill-rule="nonzero"/><path fill="#141414" d="M 216.832031 54.417969 C 215.789062 53.636719 214.742188 52.851562 213.699219 52.066406 C 213.859375 50.941406 213.921875 49.808594 213.875 48.679688 C 213.816406 47.207031 212.691406 45.972656 211.175781 45.972656 C 209.746094 45.972656 208.414062 47.203125 208.472656 48.679688 C 208.5 49.332031 208.488281 49.984375 208.445312 50.636719 C 208.4375 50.722656 208.390625 51.121094 208.382812 51.230469 C 208.339844 51.492188 208.292969 51.753906 208.238281 52.011719 C 208.113281 52.621094 207.945312 53.214844 207.753906 53.804688 C 207.675781 54.042969 207.585938 54.28125 207.492188 54.519531 C 207.539062 54.390625 207.25 55.058594 207.191406 55.183594 C 206.9375 55.699219 206.648438 56.195312 206.339844 56.679688 C 206.207031 56.890625 206.066406 57.09375 205.921875 57.292969 C 205.914062 57.304688 205.910156 57.308594 205.902344 57.316406 C 205.828125 57.410156 205.753906 57.503906 205.675781 57.597656 C 205.339844 57.992188 204.972656 58.359375 204.589844 58.707031 C 204.507812 58.78125 204.425781 58.855469 204.339844 58.925781 C 204.332031 58.929688 204.328125 58.933594 204.324219 58.941406 C 204.128906 59.082031 203.925781 59.214844 203.71875 59.339844 C 203.542969 59.445312 203.363281 59.542969 203.183594 59.632812 C 203.15625 59.648438 203.132812 59.660156 203.109375 59.671875 C 203.082031 59.679688 203.054688 59.691406 203.015625 59.707031 C 202.835938 59.769531 202.652344 59.820312 202.46875 59.867188 C 202.402344 59.882812 202.335938 59.898438 202.269531 59.910156 C 202.121094 59.921875 201.972656 59.921875 201.824219 59.921875 C 201.78125 59.917969 201.734375 59.914062 201.691406 59.914062 C 201.523438 59.878906 201.355469 59.828125 201.195312 59.773438 C 201.113281 59.730469 201.03125 59.6875 200.949219 59.640625 C 200.882812 59.601562 200.746094 59.507812 200.652344 59.441406 C 200.527344 59.332031 200.402344 59.214844 200.285156 59.09375 C 200.210938 59.019531 199.984375 58.734375 199.894531 58.628906 C 199.761719 58.429688 199.632812 58.230469 199.511719 58.023438 C 199.371094 57.785156 199.246094 57.535156 199.121094 57.285156 C 199.09375 57.222656 199.066406 57.160156 199.035156 57.097656 C 199.078125 57.179688 198.882812 56.726562 198.859375 56.664062 C 198.550781 55.835938 198.324219 54.976562 198.125 54.113281 C 197.796875 52.675781 196.175781 51.847656 194.804688 52.226562 C 193.339844 52.628906 192.589844 54.117188 192.917969 55.550781 C 193.144531 56.558594 193.4375 57.558594 193.808594 58.523438 C 192.796875 59.667969 191.660156 60.71875 190.757812 61.949219 C 190.277344 62.605469 190.648438 63.613281 191.292969 63.992188 C 192.050781 64.433594 192.851562 64.109375 193.332031 63.457031 C 193.902344 62.679688 194.554688 61.984375 195.214844 61.292969 C 195.8125 62.199219 196.53125 63.019531 197.394531 63.714844 C 197.027344 65.457031 196.386719 67.101562 195.507812 68.664062 C 194.566406 70.34375 197.144531 71.847656 198.082031 70.171875 C 198.976562 68.578125 199.695312 66.882812 200.132812 65.113281 C 201.511719 65.441406 202.96875 65.328125 204.34375 64.917969 C 204.484375 66.054688 204.789062 67.152344 205.289062 68.210938 C 205.640625 68.945312 206.675781 69.132812 207.328125 68.746094 C 208.074219 68.308594 208.214844 67.441406 207.863281 66.707031 C 207.394531 65.71875 207.242188 64.625 207.230469 63.542969 C 207.230469 63.535156 207.230469 63.53125 207.230469 63.523438 C 208.128906 62.890625 208.945312 62.109375 209.667969 61.25 C 210.347656 62.242188 211.105469 63.175781 211.953125 64.035156 C 213.304688 65.410156 215.410156 63.296875 214.058594 61.925781 C 213.058594 60.914062 212.234375 59.808594 211.496094 58.589844 C 211.558594 58.480469 211.621094 58.371094 211.679688 58.257812 C 212.195312 57.289062 212.625 56.273438 212.964844 55.222656 C 213.753906 55.8125 214.539062 56.40625 215.328125 56.996094 C 215.980469 57.484375 216.992188 57.101562 217.367188 56.460938 C 217.8125 55.699219 217.480469 54.90625 216.832031 54.417969 Z M 216.832031 54.417969 " fill-opacity="1" fill-rule="nonzero"/><path fill="#141414" d="M 340.097656 59.96875 C 339.027344 58.898438 337.914062 57.800781 336.550781 57.121094 C 336.949219 55.074219 337.023438 52.953125 336.859375 50.917969 C 336.738281 49.449219 335.71875 48.210938 334.15625 48.210938 C 332.773438 48.210938 331.335938 49.445312 331.453125 50.917969 C 331.527344 51.835938 331.558594 52.753906 331.527344 53.675781 C 331.515625 54.101562 331.484375 54.523438 331.441406 54.949219 C 331.4375 55 331.421875 55.136719 331.40625 55.242188 C 331.378906 55.433594 331.34375 55.625 331.308594 55.816406 C 331.171875 56.546875 330.972656 57.261719 330.730469 57.964844 C 330.675781 58.121094 330.613281 58.277344 330.554688 58.433594 C 330.554688 58.4375 330.550781 58.441406 330.550781 58.441406 C 330.394531 58.796875 330.214844 59.136719 330.023438 59.472656 C 329.867188 59.75 329.695312 60.019531 329.519531 60.28125 C 329.457031 60.378906 329.386719 60.46875 329.320312 60.5625 C 329.3125 60.574219 329.304688 60.585938 329.296875 60.59375 C 328.894531 61.082031 328.441406 61.53125 327.957031 61.941406 C 327.949219 61.949219 327.933594 61.960938 327.921875 61.972656 C 327.855469 62.019531 327.792969 62.066406 327.726562 62.113281 C 327.5 62.269531 327.265625 62.414062 327.027344 62.550781 C 326.796875 62.6875 326.558594 62.808594 326.3125 62.921875 C 326.3125 62.925781 326.308594 62.925781 326.308594 62.925781 C 326.199219 62.96875 326.09375 63.007812 325.984375 63.042969 C 325.539062 63.199219 325.078125 63.3125 324.609375 63.394531 C 324.523438 63.402344 324.433594 63.410156 324.34375 63.417969 C 324.054688 63.4375 323.769531 63.4375 323.480469 63.425781 C 323.375 63.421875 323.140625 63.398438 322.992188 63.386719 C 322.878906 63.363281 322.761719 63.335938 322.644531 63.3125 C 322.414062 63.257812 322.1875 63.1875 321.960938 63.113281 C 321.90625 63.09375 321.863281 63.082031 321.828125 63.070312 C 321.800781 63.054688 321.769531 63.042969 321.730469 63.023438 C 321.519531 62.921875 321.316406 62.800781 321.113281 62.679688 C 321.035156 62.628906 320.882812 62.519531 320.769531 62.433594 C 320.664062 62.339844 320.558594 62.242188 320.457031 62.144531 C 320.359375 62.046875 320.125 61.765625 320.03125 61.65625 C 319.835938 61.367188 319.671875 61.0625 319.519531 60.75 C 319.480469 60.644531 319.445312 60.539062 319.410156 60.433594 C 319.304688 60.121094 319.230469 59.800781 319.164062 59.480469 C 319.160156 59.453125 319.15625 59.425781 319.148438 59.394531 C 319.136719 59.28125 319.113281 59.101562 319.105469 59.015625 C 319.070312 58.585938 319.074219 58.15625 319.089844 57.726562 C 319.097656 57.542969 319.1875 56.761719 319.175781 56.761719 C 319.246094 56.355469 319.335938 55.953125 319.433594 55.554688 C 319.78125 54.121094 318.996094 52.625 317.546875 52.226562 C 316.15625 51.84375 314.570312 52.683594 314.222656 54.117188 C 313.746094 56.0625 313.570312 58.027344 313.824219 59.941406 C 312.917969 61.152344 312.09375 62.417969 311.160156 63.605469 C 310.660156 64.246094 310.535156 65.089844 311.160156 65.714844 C 311.683594 66.242188 312.765625 66.355469 313.269531 65.714844 C 313.828125 65.003906 314.351562 64.265625 314.871094 63.523438 C 315.519531 64.894531 316.542969 66.035156 317.761719 66.90625 C 317.503906 67.988281 317.265625 69.078125 316.925781 70.140625 C 316.335938 71.976562 319.214844 72.757812 319.800781 70.933594 C 320.074219 70.074219 320.285156 69.191406 320.488281 68.3125 C 320.539062 68.332031 320.585938 68.351562 320.636719 68.367188 C 321.839844 68.765625 323.0625 68.917969 324.265625 68.867188 C 324.421875 69.972656 324.417969 71.097656 324.417969 72.214844 C 324.417969 74.140625 327.398438 74.140625 327.398438 72.214844 C 327.398438 70.910156 327.359375 69.621094 327.179688 68.332031 C 328.070312 68.046875 328.933594 67.652344 329.75 67.167969 C 330.875 68.359375 332.332031 69.1875 333.894531 69.738281 C 335.714844 70.375 336.492188 67.492188 334.6875 66.859375 C 333.773438 66.539062 332.863281 66.050781 332.144531 65.375 C 333.066406 64.515625 333.875 63.539062 334.527344 62.480469 C 334.996094 61.71875 335.382812 60.917969 335.703125 60.085938 C 336.546875 60.640625 337.261719 61.351562 337.988281 62.078125 C 339.347656 63.441406 341.457031 61.332031 340.097656 59.96875 Z M 340.097656 59.96875 " fill-opacity="1" fill-rule="nonzero"/><path fill="#141414" d="M 87.539062 72.742188 C 87.453125 71.269531 86.378906 70.039062 84.839844 70.039062 C 83.433594 70.039062 82.050781 71.269531 82.136719 72.742188 C 82.160156 73.128906 82.164062 73.515625 82.148438 73.902344 C 82.148438 73.9375 82.144531 73.972656 82.140625 74.003906 C 82.132812 74.023438 82.097656 74.316406 82.074219 74.410156 C 82.046875 74.539062 81.878906 75.019531 81.867188 75.085938 C 81.816406 75.191406 81.757812 75.289062 81.695312 75.386719 C 81.683594 75.382812 81.449219 75.671875 81.324219 75.800781 C 81.253906 75.847656 81.183594 75.890625 81.109375 75.933594 C 81.070312 75.957031 81.035156 75.976562 81.011719 75.996094 C 80.988281 76 80.96875 76.007812 80.941406 76.015625 C 80.816406 76.058594 80.492188 76.113281 80.335938 76.140625 C 80.1875 76.144531 80.042969 76.140625 79.898438 76.132812 C 79.835938 76.121094 79.773438 76.105469 79.710938 76.09375 C 79.558594 76.058594 79.410156 76.011719 79.265625 75.960938 C 79.457031 76.019531 78.796875 75.71875 78.632812 75.613281 C 78.597656 75.589844 78.570312 75.574219 78.542969 75.558594 C 78.515625 75.527344 78.472656 75.488281 78.40625 75.425781 C 78.292969 75.324219 77.949219 74.898438 77.890625 74.839844 C 77.78125 74.667969 77.679688 74.484375 77.585938 74.304688 C 77.574219 74.28125 77.5625 74.261719 77.554688 74.246094 C 77.488281 74.066406 77.433594 73.882812 77.382812 73.703125 C 76.972656 72.285156 75.488281 71.417969 74.058594 71.8125 C 72.652344 72.199219 71.765625 73.722656 72.171875 75.140625 C 73.238281 78.84375 76.652344 81.824219 80.644531 81.535156 C 85.242188 81.199219 87.800781 77.109375 87.539062 72.742188 Z M 87.539062 72.742188 " fill-opacity="1" fill-rule="nonzero"/><path fill="#141414" d="M 215.332031 30.113281 C 210.296875 26.617188 203.214844 27.652344 199.203125 32.214844 C 198.226562 33.320312 198.109375 34.949219 199.203125 36.039062 C 200.191406 37.03125 202.046875 37.144531 203.023438 36.039062 C 203.863281 35.082031 204.140625 34.839844 205.175781 34.246094 C 205.375 34.132812 205.578125 34.035156 205.785156 33.9375 C 205.496094 34.078125 206.152344 33.804688 206.1875 33.792969 C 206.429688 33.710938 206.675781 33.644531 206.925781 33.582031 C 207.007812 33.558594 207.660156 33.453125 207.632812 33.441406 C 208.078125 33.402344 208.527344 33.398438 208.972656 33.417969 C 209.015625 33.417969 209.394531 33.460938 209.464844 33.460938 C 209.644531 33.492188 209.824219 33.53125 210 33.570312 C 210.25 33.628906 210.492188 33.703125 210.734375 33.78125 C 210.761719 33.789062 211.152344 33.945312 211.203125 33.957031 C 211.695312 34.1875 212.160156 34.472656 212.605469 34.785156 C 213.816406 35.625 215.601562 35.011719 216.300781 33.8125 C 217.089844 32.464844 216.539062 30.949219 215.332031 30.113281 Z M 215.332031 30.113281 " fill-opacity="1" fill-rule="nonzero"/><path fill="#141414" d="M 320.984375 32.351562 C 315.285156 29.25 308.820312 29.152344 302.691406 30.957031 C 301.28125 31.375 300.410156 32.847656 300.804688 34.285156 C 301.191406 35.6875 302.714844 36.589844 304.128906 36.175781 C 308.949219 34.757812 313.816406 34.605469 318.257812 37.023438 C 319.550781 37.726562 321.191406 37.351562 321.953125 36.050781 C 322.679688 34.808594 322.277344 33.054688 320.984375 32.351562 Z M 320.984375 32.351562 " fill-opacity="1" fill-rule="nonzero"/><path fill="#8fbaff" d="M 48.035156 71.304688 C 47.707031 71.226562 47.378906 71.15625 47.050781 71.097656 C 46.878906 70.929688 46.652344 70.800781 46.359375 70.746094 C 43.449219 70.183594 40.648438 70.183594 37.738281 70.746094 C 37.230469 70.84375 36.917969 71.144531 36.769531 71.519531 C 35.953125 72.113281 35.734375 73.527344 36.824219 74.03125 C 37.804688 74.488281 38.777344 74.769531 39.855469 74.710938 C 39.894531 74.722656 39.933594 74.734375 39.976562 74.742188 C 42.804688 75.292969 45.328125 75.238281 48.035156 74.183594 C 49.308594 73.683594 49.597656 71.679688 48.035156 71.304688 Z M 48.035156 71.304688 " fill-opacity="1" fill-rule="nonzero"/><path fill="#8fbaff" d="M 113.996094 71.863281 C 113.960938 71.851562 113.925781 71.839844 113.890625 71.824219 C 113.890625 71.824219 113.890625 71.820312 113.890625 71.820312 C 113.789062 71.316406 113.460938 70.875 112.902344 70.738281 C 112.429688 70.382812 111.777344 70.285156 111.203125 70.183594 C 110.609375 70.082031 110.011719 70.246094 109.648438 70.679688 C 109.101562 70.6875 108.558594 70.691406 108.011719 70.691406 C 107.15625 70.691406 106.65625 71.308594 106.570312 71.984375 C 106.542969 72.167969 106.542969 72.355469 106.578125 72.535156 C 106.441406 73.242188 106.742188 74.015625 107.613281 74.183594 C 108.644531 74.382812 109.617188 74.539062 110.65625 74.371094 C 110.773438 74.351562 110.890625 74.324219 111.007812 74.289062 C 111.742188 74.421875 112.476562 74.566406 113.203125 74.742188 C 115.109375 75.207031 115.757812 72.546875 113.996094 71.863281 Z M 113.996094 71.863281 " fill-opacity="1" fill-rule="nonzero"/><path fill="#8fbaff" d="M 180.316406 69.777344 C 180.164062 69.679688 180.011719 69.589844 179.855469 69.503906 C 179.742188 69.058594 179.421875 68.664062 178.84375 68.507812 C 174.40625 67.292969 169.632812 68.691406 167.65625 73.109375 C 167.269531 73.976562 167.542969 75.027344 168.546875 75.300781 C 169.144531 75.46875 169.757812 75.597656 170.371094 75.6875 C 170.542969 75.800781 170.75 75.875 170.988281 75.902344 C 171.050781 75.910156 171.113281 75.914062 171.179688 75.914062 C 171.972656 75.914062 172.832031 75.957031 173.648438 75.851562 C 174.183594 75.800781 174.710938 75.714844 175.222656 75.554688 C 175.238281 75.550781 175.253906 75.542969 175.269531 75.539062 C 177.460938 75.023438 179.445312 73.84375 180.851562 71.816406 C 181.328125 71.128906 180.960938 70.1875 180.316406 69.777344 Z M 180.316406 69.777344 " fill-opacity="1" fill-rule="nonzero"/><path fill="#8fbaff" d="M 356.378906 69.191406 C 356.28125 69.027344 356.144531 68.878906 355.980469 68.761719 C 356.5 67.679688 355.160156 66.65625 354.136719 66.828125 C 353.199219 66.984375 352.289062 67.128906 351.484375 67.578125 C 351.109375 67.550781 350.730469 67.550781 350.347656 67.621094 C 348.726562 67.917969 348.269531 69.878906 348.066406 71.226562 C 347.898438 72.335938 348.691406 73.214844 349.703125 73.082031 C 349.8125 73.105469 349.929688 73.121094 350.0625 73.117188 C 352.070312 73.074219 354.210938 72.441406 355.84375 71.234375 C 356.496094 70.75 356.824219 69.949219 356.378906 69.191406 Z M 356.378906 69.191406 " fill-opacity="1" fill-rule="nonzero"/><path fill="#6d9de2" d="M 108.640625 126.632812 C 107.300781 125.472656 105.605469 124.789062 103.953125 124.195312 C 101.40625 123.28125 98.722656 122.714844 96.070312 122.1875 C 90.339844 121.046875 84.507812 120.507812 78.6875 120.050781 C 75.144531 119.773438 71.570312 119.660156 68.058594 119.085938 C 67.339844 118.964844 66.628906 118.820312 65.921875 118.636719 C 65.25 118.460938 64.742188 118.273438 64.367188 118.078125 C 64.261719 118.023438 64.160156 117.960938 64.058594 117.894531 C 64.046875 117.890625 64.039062 117.882812 64.03125 117.878906 C 64.027344 117.875 64.023438 117.871094 64.019531 117.867188 C 64.003906 117.855469 63.992188 117.84375 63.980469 117.828125 C 64.007812 117.78125 64.035156 117.734375 64.066406 117.691406 C 64.03125 117.75 64.222656 117.488281 64.238281 117.46875 C 64.347656 117.347656 64.46875 117.234375 64.585938 117.121094 C 64.832031 116.882812 65.097656 116.675781 65.375 116.472656 C 66.304688 115.796875 67.316406 115.191406 68.351562 114.691406 C 70.09375 113.851562 71.953125 113.269531 73.820312 112.777344 C 78.128906 111.644531 82.597656 111.191406 87.042969 111.085938 C 91.414062 110.984375 95.824219 111.253906 100.125 112.039062 C 101.902344 112.363281 103.664062 112.792969 105.378906 113.355469 C 107.210938 113.960938 107.988281 111.078125 106.171875 110.480469 C 102.300781 109.203125 98.214844 108.613281 94.164062 108.292969 C 89.59375 107.933594 84.980469 108.027344 80.429688 108.558594 C 76.136719 109.058594 71.859375 109.941406 67.875 111.652344 C 65.984375 112.464844 64.164062 113.53125 62.609375 114.890625 C 61.585938 115.789062 60.738281 117.066406 61.027344 118.484375 C 61.566406 121.132812 65.511719 121.683594 67.652344 122.023438 C 71.304688 122.601562 75.007812 122.746094 78.6875 123.035156 C 84.488281 123.488281 90.273438 124.046875 95.984375 125.207031 C 98.570312 125.730469 101.160156 126.328125 103.636719 127.246094 C 104.964844 127.738281 106.277344 128.339844 107.082031 129.289062 C 106.886719 129.0625 107.0625 129.414062 107.128906 129.5 C 107.128906 129.503906 107.128906 129.507812 107.128906 129.511719 C 107.125 129.519531 107.117188 129.523438 107.113281 129.535156 C 107.097656 129.566406 107.054688 129.628906 107.023438 129.671875 C 106.949219 129.753906 106.871094 129.835938 106.789062 129.910156 C 106.769531 129.929688 106.625 130.046875 106.597656 130.070312 C 106.511719 130.128906 106.425781 130.1875 106.335938 130.246094 C 106.070312 130.421875 105.789062 130.570312 105.503906 130.710938 C 104.800781 131.0625 104.03125 131.3125 103.25 131.546875 C 98.265625 133.054688 93.066406 133.023438 87.914062 133.160156 C 85.015625 133.238281 82.117188 133.355469 79.234375 133.683594 C 76.8125 133.957031 74.414062 134.433594 72.023438 134.890625 C 69 135.46875 65.53125 136.246094 63.054688 138.179688 C 62.09375 138.925781 61.492188 140.035156 61.789062 141.269531 C 62.144531 142.726562 63.746094 143.457031 64.984375 143.976562 C 68.578125 145.492188 72.601562 145.742188 76.453125 145.730469 C 80.5 145.71875 84.539062 145.476562 88.585938 145.625 C 92.347656 145.761719 96.289062 146.210938 99.6875 147.953125 C 101.230469 148.742188 102.664062 149.832031 103.664062 151.261719 C 103.769531 151.417969 103.867188 151.578125 103.960938 151.742188 C 103.960938 151.738281 104.085938 152.011719 104.105469 152.035156 C 104.125 152.09375 104.144531 152.152344 104.15625 152.210938 C 104.15625 152.214844 104.15625 152.214844 104.152344 152.21875 C 104.136719 152.1875 104.132812 152.210938 104.132812 152.238281 C 104.113281 152.257812 104.097656 152.273438 104.089844 152.285156 C 104.070312 152.296875 104.050781 152.3125 104.019531 152.332031 C 103.847656 152.449219 103.660156 152.542969 103.472656 152.636719 C 101.683594 153.542969 99.410156 153.976562 97.457031 154.457031 C 94.84375 155.105469 92.140625 155.273438 89.464844 155.449219 C 86.761719 155.628906 84.058594 155.796875 81.386719 156.253906 C 79.859375 156.519531 78.347656 157 76.863281 157.433594 C 73.554688 158.398438 70.28125 159.515625 67.152344 160.960938 C 64.878906 162.015625 62.023438 163.453125 61.058594 165.941406 C 59.972656 168.761719 62.910156 170.75 65.09375 171.710938 C 73.355469 175.332031 82.683594 173.769531 91.351562 175.476562 C 94.542969 176.105469 97.648438 177.222656 100.234375 179.183594 C 95.714844 183.28125 88.753906 183.558594 82.96875 184.164062 C 75.597656 184.9375 67.761719 185.996094 62.238281 191.449219 C 61.703125 191.980469 61.609375 193.046875 62.238281 193.5625 C 67.890625 198.195312 75.902344 197.425781 82.726562 197.140625 C 89.203125 196.867188 97.269531 196.277344 101.976562 201.65625 C 95.554688 205.660156 87.613281 206.203125 80.265625 207.207031 C 72.027344 208.335938 63.628906 210.277344 57.765625 216.636719 C 57.152344 217.296875 57.167969 218.539062 58.066406 218.976562 C 60.398438 220.121094 63.078125 220.386719 65.632812 220.578125 C 68.96875 220.832031 72.324219 220.808594 75.667969 220.824219 C 79.203125 220.835938 82.746094 220.847656 86.273438 221.085938 C 89.148438 221.285156 92.003906 221.597656 94.738281 222.648438 C 94.9375 222.726562 94.730469 222.640625 95.046875 222.78125 C 95.257812 222.875 95.460938 222.980469 95.664062 223.089844 C 95.859375 223.195312 96.046875 223.308594 96.234375 223.429688 C 96.292969 223.464844 96.609375 223.699219 96.621094 223.703125 C 96.726562 223.789062 96.828125 223.878906 96.925781 223.972656 C 94.742188 225.195312 92.375 226.007812 89.964844 226.734375 C 86.460938 227.789062 82.882812 228.585938 79.324219 229.449219 C 72.625 231.074219 65.3125 232.765625 59.878906 237.269531 C 58.011719 238.816406 56.601562 240.789062 55.703125 243.039062 C 55.523438 243.492188 55.726562 244.171875 56.085938 244.488281 C 61.78125 249.507812 69.582031 249.414062 76.734375 249.339844 C 82.96875 249.277344 89.953125 249.117188 94.929688 253.226562 C 90.402344 255.566406 84.964844 255.925781 80.027344 256.765625 C 74.21875 257.753906 68.394531 259.5 64.796875 264.507812 C 64.441406 265.003906 64.550781 265.929688 65.03125 266.316406 C 66.652344 267.613281 69.007812 267.734375 70.992188 267.925781 C 73.960938 268.207031 76.949219 268.273438 79.929688 268.398438 C 82.882812 268.523438 86.21875 268.671875 88.929688 269.054688 C 90.128906 269.222656 91.328125 269.445312 92.488281 269.808594 C 92.679688 269.871094 92.871094 269.941406 93.0625 270.015625 C 92.972656 269.984375 93.414062 270.175781 93.496094 270.21875 C 93.65625 270.304688 93.808594 270.398438 93.953125 270.5 C 93.957031 270.503906 93.960938 270.507812 93.964844 270.511719 C 94.035156 270.570312 94.097656 270.636719 94.164062 270.703125 C 94.179688 270.730469 94.195312 270.753906 94.207031 270.78125 C 94.207031 270.78125 94.207031 270.785156 94.207031 270.785156 C 94.128906 270.652344 94.140625 270.757812 94.167969 270.839844 C 94.167969 270.84375 94.167969 270.84375 94.167969 270.84375 C 94.109375 270.910156 94.046875 270.972656 93.984375 271.035156 C 93.875 271.148438 93.753906 271.25 93.632812 271.351562 C 93.699219 271.289062 93.292969 271.597656 93.210938 271.652344 C 92.964844 271.816406 92.710938 271.972656 92.457031 272.121094 C 90.027344 273.542969 87.53125 274.429688 84.863281 275.363281 C 80.328125 276.957031 75.644531 278.460938 70.933594 279.457031 C 70.898438 279.460938 70.875 279.46875 70.859375 279.472656 C 69.207031 279.804688 69.285156 282.507812 71.117188 282.421875 C 72.554688 282.359375 74.082031 281.757812 75.453125 281.382812 C 78.269531 280.617188 81.066406 279.78125 83.839844 278.863281 C 86.753906 277.898438 89.660156 276.84375 92.425781 275.507812 C 94.160156 274.671875 96.472656 273.535156 97.105469 271.550781 C 97.8125 269.335938 95.578125 267.8125 93.847656 267.132812 C 91.410156 266.171875 88.617188 265.980469 86.03125 265.765625 C 82.855469 265.5 79.671875 265.410156 76.488281 265.273438 C 75.019531 265.210938 73.554688 265.140625 72.089844 265.035156 C 71.476562 264.988281 70.863281 264.933594 70.253906 264.867188 C 69.675781 264.800781 69.554688 264.789062 68.820312 264.65625 C 68.738281 264.640625 68.65625 264.625 68.574219 264.605469 C 71.972656 261.207031 77.167969 260.242188 81.773438 259.484375 C 87.332031 258.574219 93.347656 258.046875 98.144531 254.796875 C 98.957031 254.242188 99.121094 253.195312 98.445312 252.453125 C 93.242188 246.757812 85.433594 246.300781 78.214844 246.34375 C 71.875 246.382812 64.316406 247.046875 58.964844 243 C 60.066406 240.894531 61.988281 239.195312 64.082031 237.914062 C 66.957031 236.152344 70.191406 235.042969 73.40625 234.09375 C 80.34375 232.039062 87.589844 230.964844 94.371094 228.398438 C 96.269531 227.679688 98.136719 226.835938 99.820312 225.695312 C 100.535156 225.210938 100.726562 224.425781 100.355469 223.652344 C 99.277344 221.417969 96.925781 220.207031 94.675781 219.46875 C 91.730469 218.503906 88.539062 218.238281 85.464844 218.050781 C 78.628906 217.640625 71.757812 218.125 64.929688 217.539062 C 63.753906 217.4375 63.03125 217.351562 61.855469 217.109375 C 61.773438 217.089844 61.695312 217.070312 61.617188 217.050781 C 73.457031 206.726562 92.214844 212.550781 104.851562 203.308594 C 105.476562 202.851562 105.867188 201.996094 105.386719 201.269531 C 103.363281 198.214844 100.453125 196.183594 96.972656 195.113281 C 93.5 194.042969 89.746094 193.972656 86.140625 194.039062 C 82.382812 194.113281 78.632812 194.417969 74.871094 194.335938 C 71.738281 194.269531 68.464844 193.90625 65.707031 192.363281 C 70.910156 188.25 78.007812 187.664062 84.417969 187 C 91.082031 186.304688 98.835938 185.613281 103.476562 180.128906 C 103.984375 179.53125 104.109375 178.605469 103.476562 178.019531 C 96.605469 171.703125 86.808594 171.816406 78.066406 171.285156 C 73.910156 171.03125 69.632812 170.636719 65.835938 168.777344 C 65.261719 168.5 64.632812 168.105469 64.335938 167.84375 C 64.238281 167.757812 64.148438 167.664062 64.058594 167.570312 C 64.039062 167.550781 64.023438 167.535156 64.011719 167.519531 C 64.007812 167.515625 64.003906 167.511719 64 167.507812 C 63.945312 167.425781 63.894531 167.335938 63.847656 167.25 C 63.84375 167.230469 63.839844 167.199219 63.828125 167.160156 C 63.828125 167.128906 63.828125 167.089844 63.832031 167.054688 C 63.84375 167.007812 63.855469 166.964844 63.871094 166.917969 C 63.871094 166.910156 63.875 166.90625 63.875 166.898438 C 63.929688 166.792969 64.15625 166.460938 64.121094 166.496094 C 64.28125 166.300781 64.460938 166.125 64.644531 165.953125 C 65.050781 165.570312 65.273438 165.421875 65.859375 165.042969 C 66.488281 164.636719 67.148438 164.285156 67.816406 163.945312 C 69.234375 163.226562 70.714844 162.636719 72.207031 162.089844 C 75.222656 160.980469 78.3125 160.074219 81.425781 159.285156 C 83.910156 158.65625 86.589844 158.625 89.136719 158.457031 C 91.875 158.277344 94.621094 158.074219 97.320312 157.542969 C 99.539062 157.105469 101.835938 156.46875 103.953125 155.65625 C 105.253906 155.160156 106.847656 154.355469 107.085938 152.8125 C 107.359375 151.039062 106.15625 149.417969 105 148.199219 C 103.707031 146.835938 102.09375 145.773438 100.398438 144.988281 C 96.714844 143.285156 92.601562 142.800781 88.585938 142.640625 C 84.542969 142.476562 80.496094 142.722656 76.453125 142.746094 C 72.785156 142.765625 68.984375 142.597656 65.605469 141.015625 C 65.332031 140.890625 65.074219 140.738281 64.824219 140.570312 C 64.828125 140.570312 64.828125 140.570312 64.828125 140.570312 C 64.839844 140.570312 64.84375 140.570312 64.839844 140.558594 C 64.914062 140.492188 64.988281 140.425781 65.066406 140.363281 C 64.835938 140.554688 65.425781 140.144531 65.539062 140.078125 C 66.164062 139.707031 66.667969 139.5 67.296875 139.261719 C 68.882812 138.664062 70.535156 138.242188 72.191406 137.894531 C 74.402344 137.425781 76.652344 136.992188 78.890625 136.710938 C 84.613281 135.984375 90.410156 136.222656 96.160156 135.84375 C 98.578125 135.6875 101.027344 135.234375 103.367188 134.617188 C 104.953125 134.199219 106.585938 133.640625 107.964844 132.742188 C 109.078125 132.019531 109.953125 131.03125 110.109375 129.675781 C 110.246094 128.488281 109.5 127.375 108.640625 126.632812 Z M 108.640625 126.632812 " fill-opacity="1" fill-rule="nonzero"/><path fill="#6d9de2" d="M 326.125 154.347656 C 326.167969 154.269531 326.210938 154.191406 326.257812 154.113281 C 326.46875 153.757812 327.019531 153.226562 327.53125 152.84375 C 330.835938 150.390625 334.855469 149.164062 338.894531 148.722656 C 346.480469 147.894531 356.078125 148.773438 361.246094 141.976562 C 362.152344 140.78125 362.667969 139.363281 362.328125 137.867188 C 362.03125 136.53125 360.90625 135.539062 359.8125 134.832031 C 357.226562 133.164062 353.945312 132.535156 351.007812 131.789062 C 349.554688 131.417969 348.125 130.96875 346.65625 130.667969 C 344.714844 130.265625 342.742188 130.003906 340.78125 129.710938 C 336.960938 129.140625 332.742188 128.671875 329.320312 126.742188 C 328.582031 126.328125 327.988281 125.816406 327.382812 125.230469 C 327.097656 124.953125 326.808594 124.660156 326.566406 124.34375 C 326.453125 124.191406 326.355469 124.03125 326.257812 123.875 C 326.226562 123.824219 326.050781 123.449219 326.046875 123.457031 C 326.015625 123.375 325.992188 123.289062 325.972656 123.203125 C 326 123.296875 325.957031 123.035156 325.957031 122.976562 C 325.957031 122.886719 325.960938 122.902344 326.007812 122.808594 C 326.023438 122.78125 326.121094 122.636719 326.136719 122.605469 C 326.195312 122.539062 326.257812 122.472656 326.324219 122.410156 C 326.53125 122.203125 326.585938 122.175781 326.96875 121.945312 C 328.261719 121.164062 329.804688 120.78125 331.300781 120.398438 C 333.0625 119.949219 334.84375 119.597656 336.613281 119.191406 C 339.621094 118.496094 342.660156 117.9375 345.667969 117.234375 C 349.109375 116.429688 352.757812 115.457031 355.738281 113.492188 C 358.25 111.832031 360.140625 108.710938 359.34375 105.617188 C 358.625 102.824219 355.496094 101.730469 352.972656 101.292969 C 350.300781 100.832031 347.570312 100.835938 344.867188 100.882812 C 341.910156 100.933594 338.960938 100.847656 336.003906 100.773438 C 332.21875 100.679688 328.425781 100.613281 324.644531 100.84375 C 321.726562 101.023438 318.335938 101.238281 315.769531 102.792969 C 314.128906 103.789062 315.625 106.371094 317.273438 105.371094 C 318.308594 104.742188 319.675781 104.441406 321.0625 104.203125 C 322.886719 103.890625 324.75 103.800781 326.59375 103.734375 C 330.757812 103.582031 334.925781 103.734375 339.089844 103.835938 C 341.976562 103.910156 344.855469 103.816406 347.738281 103.851562 C 349.148438 103.871094 350.757812 103.949219 352.007812 104.144531 C 353.332031 104.347656 354.546875 104.664062 355.511719 105.25 C 355.878906 105.472656 356.101562 105.703125 356.269531 105.960938 C 356.542969 106.386719 356.550781 106.46875 356.539062 107.101562 C 356.527344 108.109375 355.871094 109.464844 355.128906 110.195312 C 352.953125 112.339844 349.160156 113.273438 346.183594 114.039062 C 343.121094 114.824219 339.996094 115.304688 336.925781 116.046875 C 333.507812 116.871094 329.945312 117.382812 326.691406 118.765625 C 325.414062 119.308594 324.144531 120.066406 323.433594 121.304688 C 322.648438 122.667969 322.988281 124.261719 323.777344 125.53125 C 325.886719 128.941406 329.765625 130.5 333.476562 131.40625 C 337.484375 132.378906 341.609375 132.710938 345.652344 133.503906 C 347.136719 133.792969 348.578125 134.246094 350.042969 134.621094 C 351.574219 135.015625 353.109375 135.390625 354.621094 135.855469 C 356.007812 136.28125 357.214844 136.707031 358.433594 137.492188 C 358.726562 137.683594 358.613281 137.59375 358.921875 137.875 C 359.019531 137.964844 359.109375 138.058594 359.199219 138.15625 C 359.207031 138.167969 359.214844 138.175781 359.222656 138.183594 C 359.234375 138.203125 359.25 138.222656 359.269531 138.253906 C 359.3125 138.320312 359.351562 138.386719 359.386719 138.457031 C 359.335938 138.371094 359.4375 138.597656 359.453125 138.660156 C 359.460938 138.675781 359.464844 138.691406 359.46875 138.703125 C 359.46875 138.714844 359.46875 138.722656 359.46875 138.734375 C 359.472656 138.796875 359.4375 139.082031 359.445312 139.085938 C 359.339844 139.546875 359.152344 139.855469 358.777344 140.324219 C 358.136719 141.125 357.339844 141.792969 356.550781 142.441406 C 355.355469 143.425781 353.632812 143.902344 352.136719 144.261719 C 348.132812 145.226562 343.949219 145.261719 339.867188 145.640625 C 337.914062 145.824219 335.953125 146.054688 334.042969 146.523438 C 331.800781 147.074219 329.582031 148.148438 327.578125 149.277344 C 325.371094 150.519531 322.476562 152.648438 323.1875 155.566406 C 323.90625 158.53125 328.089844 159.660156 330.585938 160.308594 C 335.140625 161.492188 339.953125 161.652344 344.617188 162.070312 C 348.785156 162.445312 352.964844 162.886719 357.035156 163.875 C 356.03125 166.195312 354.472656 168.171875 352.359375 169.527344 C 349.839844 171.144531 346.867188 171.855469 343.890625 172.328125 C 337.503906 173.339844 330.800781 172.933594 324.53125 174.828125 C 321.769531 175.664062 319.15625 177.042969 317.144531 179.140625 C 316.585938 179.722656 316.554688 180.671875 317.144531 181.25 C 320.46875 184.523438 324.746094 186.253906 329.222656 187.304688 C 333.546875 188.324219 338.007812 188.777344 342.238281 190.191406 C 344.339844 190.894531 346.46875 191.953125 348.132812 193.4375 C 348.359375 193.640625 348.683594 193.96875 348.8125 194.144531 C 348.910156 194.277344 348.992188 194.417969 349.074219 194.558594 C 349.097656 194.601562 349.117188 194.628906 349.128906 194.652344 C 349.136719 194.671875 349.144531 194.699219 349.160156 194.734375 C 349.171875 194.769531 349.207031 194.945312 349.222656 194.988281 C 349.222656 195.019531 349.222656 195.050781 349.222656 195.082031 C 349.222656 195.003906 349.195312 195.230469 349.175781 195.300781 C 349.140625 195.371094 349.101562 195.441406 349.054688 195.507812 C 349.042969 195.527344 349.035156 195.542969 349.027344 195.558594 C 349.011719 195.574219 348.988281 195.597656 348.960938 195.632812 C 348.867188 195.738281 348.757812 195.835938 348.652344 195.933594 C 348.546875 196.027344 348.316406 196.1875 348.042969 196.351562 C 347.371094 196.761719 346.636719 197.035156 345.890625 197.273438 C 343.984375 197.878906 341.988281 198.160156 340 198.289062 C 337.542969 198.453125 335.078125 198.308594 332.621094 198.210938 C 329.210938 198.078125 325.796875 197.945312 322.386719 198.046875 C 318.738281 198.152344 308.992188 198.59375 311.402344 204.777344 C 312.21875 206.871094 313.949219 208.480469 315.644531 209.878906 C 317.855469 211.703125 320.253906 213.292969 322.648438 214.863281 C 325.011719 216.414062 327.40625 217.929688 329.691406 219.59375 C 330.542969 220.214844 331.355469 220.863281 332.160156 221.613281 C 332.359375 221.800781 332.546875 221.992188 332.734375 222.191406 C 332.421875 222.28125 332.101562 222.355469 331.785156 222.417969 C 331.695312 222.433594 331.609375 222.449219 331.519531 222.460938 C 331.484375 222.464844 331.28125 222.496094 331.253906 222.496094 C 330.972656 222.527344 330.691406 222.546875 330.410156 222.5625 C 329.753906 222.597656 329.097656 222.589844 328.441406 222.566406 C 325.542969 222.464844 322.9375 221.988281 320.0625 221.492188 C 317.199219 221 314.332031 220.460938 311.4375 220.21875 C 309.34375 220.042969 306.9375 219.984375 305.0625 221.074219 C 303.015625 222.261719 302.746094 224.621094 303.230469 226.738281 C 303.875 229.535156 305.714844 231.402344 307.777344 233.269531 C 310.386719 235.636719 313.152344 237.832031 315.65625 240.316406 C 316.765625 241.414062 317.816406 242.558594 318.660156 243.855469 C 318.84375 244.136719 319.007812 244.425781 319.167969 244.722656 C 319.359375 245.085938 319.339844 245.054688 319.453125 245.359375 C 319.722656 246.089844 319.738281 246.21875 319.714844 246.875 C 319.710938 246.902344 319.710938 246.921875 319.710938 246.941406 C 319.707031 246.957031 319.703125 246.976562 319.699219 247.003906 C 319.675781 247.132812 319.636719 247.261719 319.597656 247.386719 C 319.507812 247.695312 319.539062 247.605469 319.3125 247.9375 C 319.476562 247.695312 319.207031 248.027344 319.183594 248.050781 C 319.164062 248.066406 319.152344 248.082031 319.140625 248.09375 C 319.121094 248.105469 319.089844 248.125 319.046875 248.152344 C 318.679688 248.394531 318.765625 248.332031 318.332031 248.453125 C 317.199219 248.769531 315.546875 248.550781 314.210938 248.269531 C 311.285156 247.648438 308.398438 246.550781 305.800781 245.097656 C 303.070312 243.570312 300.644531 241.625 298.003906 239.960938 C 295.914062 238.640625 293.164062 237.640625 291.464844 240.085938 C 290.570312 241.371094 290.480469 243.242188 290.417969 244.742188 C 290.332031 246.671875 290.402344 248.617188 290.929688 250.484375 C 291.992188 254.273438 294.15625 257.722656 295.859375 261.238281 C 297.242188 264.09375 298.953125 267.730469 297.824219 270.847656 C 297.691406 271.210938 297.34375 271.847656 297.09375 272.292969 C 296.964844 272.523438 296.824219 272.746094 296.683594 272.96875 C 296.617188 273.070312 296.546875 273.171875 296.472656 273.273438 C 296.4375 273.324219 296.414062 273.359375 296.398438 273.382812 C 296.390625 273.390625 296.378906 273.402344 296.359375 273.429688 C 296.117188 273.734375 295.839844 274.011719 295.542969 274.265625 C 295.539062 274.269531 295.539062 274.269531 295.535156 274.273438 C 295.464844 274.324219 295.390625 274.367188 295.320312 274.414062 C 295.25 274.457031 295.179688 274.496094 295.105469 274.535156 C 295.085938 274.542969 295.074219 274.550781 295.0625 274.558594 C 294.933594 274.605469 294.800781 274.640625 294.667969 274.671875 C 294.65625 274.675781 294.648438 274.675781 294.636719 274.679688 C 294.613281 274.679688 294.589844 274.679688 294.554688 274.683594 C 294.484375 274.6875 294.410156 274.6875 294.339844 274.683594 C 294.308594 274.671875 294.019531 274.632812 293.921875 274.605469 C 293.835938 274.582031 293.753906 274.554688 293.671875 274.527344 C 293.671875 274.523438 293.390625 274.398438 293.3125 274.359375 C 293.015625 274.203125 292.734375 274.015625 292.464844 273.816406 C 292.488281 273.832031 292.175781 273.582031 292.109375 273.527344 C 291.957031 273.394531 291.804688 273.253906 291.65625 273.117188 C 291.3125 272.792969 290.988281 272.449219 290.671875 272.101562 C 290.355469 271.757812 290.054688 271.402344 289.757812 271.039062 C 289.605469 270.851562 289.453125 270.664062 289.300781 270.472656 C 289.25 270.40625 289.195312 270.335938 289.144531 270.269531 C 289.167969 270.300781 288.953125 270.023438 288.925781 269.984375 C 286.359375 266.597656 284.195312 262.847656 281.277344 259.742188 C 280.191406 258.585938 278.835938 257.398438 277.246094 257.046875 C 275.519531 256.660156 273.902344 257.40625 272.804688 258.742188 C 271.339844 260.523438 270.628906 262.546875 270.542969 264.835938 C 270.4375 267.617188 270.738281 270.414062 270.882812 273.191406 C 271.015625 275.664062 271.097656 278.15625 270.867188 280.628906 C 270.785156 281.492188 270.605469 282.507812 270.273438 283.515625 C 270.0625 284.148438 269.734375 284.757812 269.203125 285.242188 C 269.191406 285.253906 269.179688 285.261719 269.171875 285.269531 C 269.105469 285.316406 269.035156 285.359375 268.964844 285.402344 C 268.902344 285.4375 268.835938 285.476562 268.769531 285.507812 C 268.761719 285.511719 268.753906 285.515625 268.75 285.519531 C 268.734375 285.523438 268.722656 285.527344 268.707031 285.535156 C 268.554688 285.589844 268.394531 285.625 268.234375 285.660156 C 268.335938 285.632812 267.859375 285.6875 267.769531 285.6875 C 267.230469 285.695312 266.835938 285.617188 266.484375 285.363281 C 266.589844 285.101562 266.617188 284.796875 266.53125 284.453125 C 265.902344 281.9375 265.460938 279.265625 264.496094 276.855469 C 263.929688 275.441406 263.386719 274.019531 262.832031 272.601562 C 261.5625 269.367188 260.25 266.140625 258.617188 263.074219 C 257.277344 260.558594 255.632812 257.898438 253.1875 256.328125 C 250.785156 254.789062 248.113281 255.441406 246.085938 257.253906 C 243.496094 259.574219 241.851562 263.210938 240.792969 266.464844 C 239.761719 269.636719 239.050781 272.902344 237.785156 275.996094 C 236.691406 278.667969 234.96875 281.277344 232.15625 282.046875 C 230.761719 282.425781 229.207031 282.214844 228.050781 281.527344 C 227.085938 280.953125 226.503906 279.878906 226.160156 278.734375 C 225.277344 275.808594 225.699219 272.417969 226.023438 269.359375 C 226.3125 266.613281 226.6875 263.875 226.988281 261.128906 C 227.355469 257.757812 227.539062 254.324219 226.945312 250.96875 C 226.421875 248.035156 224.863281 245.15625 221.8125 244.332031 C 214.96875 242.484375 212.046875 250.160156 209.671875 254.992188 C 209.015625 256.328125 208.316406 257.648438 207.449219 258.863281 C 207.179688 259.238281 206.769531 259.703125 206.328125 260.117188 C 206.027344 260.402344 206.085938 260.347656 205.816406 260.53125 C 205.695312 260.617188 205.570312 260.6875 205.445312 260.761719 C 205.40625 260.785156 205.082031 260.941406 205.082031 260.949219 C 204.554688 261.160156 203.976562 261.285156 203.421875 261.398438 C 203.328125 261.417969 203.234375 261.429688 203.144531 261.445312 C 203.105469 261.449219 202.921875 261.476562 202.890625 261.480469 C 202.609375 261.507812 202.324219 261.515625 202.042969 261.515625 C 201.953125 261.515625 201.5625 261.480469 201.523438 261.484375 C 201.367188 261.457031 201.210938 261.421875 201.058594 261.382812 C 200.980469 261.363281 200.707031 261.257812 200.636719 261.238281 C 200.484375 261.164062 200.339844 261.078125 200.195312 260.988281 C 200.152344 260.960938 200.125 260.945312 200.105469 260.933594 C 200.082031 260.914062 200.046875 260.878906 199.988281 260.828125 C 199.851562 260.703125 199.726562 260.566406 199.605469 260.425781 C 199.601562 260.421875 199.597656 260.417969 199.59375 260.414062 C 199.542969 260.34375 199.492188 260.269531 199.441406 260.191406 C 199.316406 260 199.210938 259.792969 199.109375 259.585938 C 199.097656 259.5625 199.074219 259.507812 199.050781 259.464844 C 199.027344 259.398438 199.003906 259.335938 198.980469 259.269531 C 198.902344 259.066406 198.839844 258.855469 198.78125 258.644531 C 198.71875 258.421875 198.667969 258.199219 198.621094 257.976562 C 198.597656 257.859375 198.578125 257.742188 198.558594 257.625 C 198.546875 257.578125 198.515625 257.34375 198.503906 257.289062 C 198.230469 255.015625 198.460938 252.382812 198.746094 250.378906 C 199.558594 244.679688 201.175781 239.105469 202.828125 233.601562 C 203.492188 231.382812 204.1875 229.171875 204.828125 226.945312 C 205.042969 226.191406 205.253906 225.433594 205.425781 224.664062 C 205.484375 224.410156 205.535156 224.152344 205.574219 223.890625 C 205.597656 223.722656 205.621094 223.554688 205.640625 223.386719 C 205.648438 223.324219 205.648438 223.328125 205.644531 223.359375 C 205.644531 223.339844 205.648438 223.324219 205.652344 223.304688 C 205.71875 222.808594 205.78125 222.316406 205.832031 221.820312 C 206.210938 218.269531 206.136719 212.945312 201.597656 212.390625 C 199.964844 212.191406 198.238281 212.921875 196.796875 213.597656 C 194.902344 214.484375 193.144531 215.652344 191.425781 216.832031 C 187.40625 219.605469 183.609375 222.691406 179.5625 225.429688 C 177.917969 226.542969 176.21875 227.621094 174.398438 228.429688 C 174.335938 228.453125 174.042969 228.574219 173.972656 228.601562 C 173.792969 228.667969 173.613281 228.730469 173.433594 228.789062 C 173.074219 228.902344 172.710938 228.992188 172.34375 229.058594 C 172.285156 229.0625 172.230469 229.070312 172.171875 229.074219 C 172.023438 229.085938 171.875 229.085938 171.726562 229.082031 C 171.675781 229.078125 171.625 229.074219 171.574219 229.070312 C 171.441406 229.046875 171.3125 229.011719 171.183594 228.96875 C 171.164062 228.957031 171.140625 228.941406 171.109375 228.925781 C 171.066406 228.902344 170.984375 228.84375 170.921875 228.796875 C 170.859375 228.738281 170.796875 228.679688 170.742188 228.617188 C 170.648438 228.480469 170.566406 228.332031 170.488281 228.1875 C 170.394531 228.011719 170.152344 227.109375 170.128906 226.886719 C 170.066406 226.222656 170.113281 225.414062 170.199219 224.867188 C 170.746094 221.394531 172.480469 218.132812 174.207031 215.125 C 177.183594 209.929688 180.414062 205.574219 184.292969 201.257812 C 186.839844 198.421875 189.421875 195.617188 191.871094 192.695312 C 194.050781 190.09375 196.277344 187.375 197.8125 184.328125 C 198.867188 182.242188 199.351562 180.039062 198.347656 177.839844 C 197.652344 176.3125 195.980469 175.648438 194.390625 175.664062 C 192.550781 175.683594 190.734375 176.367188 189.058594 177.066406 C 186.804688 178.003906 184.628906 179.113281 182.457031 180.230469 C 180.191406 181.398438 177.9375 182.578125 175.625 183.652344 C 173.695312 184.546875 171.765625 185.371094 169.488281 185.894531 C 169.261719 185.949219 169.03125 185.992188 168.800781 186.035156 C 168.691406 186.058594 168.578125 186.074219 168.464844 186.09375 C 168.457031 186.09375 168.453125 186.09375 168.445312 186.097656 C 168.4375 186.097656 168.429688 186.097656 168.421875 186.097656 C 167.976562 186.152344 167.523438 186.171875 167.070312 186.160156 C 166.9375 186.15625 166.804688 186.148438 166.671875 186.136719 C 166.707031 186.132812 166.332031 186.078125 166.242188 186.058594 C 166.066406 186.019531 165.894531 185.964844 165.722656 185.90625 C 165.707031 185.902344 165.679688 185.890625 165.65625 185.882812 C 165.582031 185.847656 165.507812 185.808594 165.4375 185.769531 C 165.335938 185.714844 165.238281 185.65625 165.144531 185.589844 C 165.164062 185.597656 164.894531 185.382812 164.828125 185.316406 C 164.773438 185.265625 164.609375 185.066406 164.558594 185.007812 C 164.457031 184.859375 164.359375 184.707031 164.273438 184.550781 C 164.222656 184.460938 164.179688 184.367188 164.132812 184.273438 C 164.125 184.257812 164.121094 184.242188 164.113281 184.230469 C 164.027344 184.019531 163.960938 183.800781 163.894531 183.582031 C 163.824219 183.34375 163.773438 183.097656 163.722656 182.855469 C 163.695312 182.71875 163.671875 182.582031 163.648438 182.445312 C 163.636719 182.378906 163.625 182.308594 163.613281 182.238281 C 163.613281 182.222656 163.609375 182.175781 163.597656 182.097656 C 163.332031 179.6875 163.894531 177.558594 164.945312 175.527344 C 166.214844 173.082031 167.871094 171.203125 169.835938 169.253906 C 174.3125 164.820312 179.570312 161.25 184.566406 157.445312 C 191.035156 152.523438 200.699219 145.539062 198.890625 136.144531 C 198.769531 135.503906 198.078125 135.042969 197.453125 135.050781 C 194.5625 135.074219 191.75 135.675781 188.976562 136.449219 C 186.527344 137.132812 184.121094 137.847656 181.78125 138.847656 C 177.273438 140.78125 173.035156 143.28125 168.539062 145.242188 C 166.507812 146.128906 164.378906 146.855469 162.191406 147.238281 C 160.511719 147.53125 158.5625 147.644531 156.933594 147.167969 C 156.597656 147.070312 156.390625 146.949219 156.199219 146.761719 C 156.179688 146.734375 156.125 146.65625 156.09375 146.609375 C 156.089844 146.597656 156.085938 146.585938 156.082031 146.570312 C 156.070312 146.539062 156.058594 146.472656 156.050781 146.425781 C 156.046875 146.320312 156.046875 146.210938 156.050781 146.109375 C 156.050781 146.09375 156.050781 146.085938 156.050781 146.074219 C 156.054688 146.0625 156.058594 146.050781 156.058594 146.035156 C 156.082031 145.910156 156.117188 145.789062 156.148438 145.667969 C 156.183594 145.539062 156.226562 145.414062 156.269531 145.289062 C 156.277344 145.277344 156.34375 145.113281 156.367188 145.054688 C 156.644531 144.449219 157 143.878906 157.375 143.332031 C 159.023438 140.917969 161.496094 138.664062 163.824219 136.917969 C 167.921875 133.847656 172.308594 131.425781 176.953125 129.285156 C 181.691406 127.097656 186.546875 125.167969 191.226562 122.855469 C 192.933594 122.011719 194.582031 120.988281 196.234375 120.039062 C 197.886719 119.089844 199.511719 118.097656 201.019531 116.929688 C 202.203125 116.011719 203.253906 114.976562 203.820312 113.566406 C 204.355469 112.238281 203.746094 110.757812 202.707031 109.886719 C 201.082031 108.515625 198.746094 107.921875 196.699219 107.574219 C 194.128906 107.136719 191.550781 107.328125 188.996094 107.789062 C 183.90625 108.703125 179.148438 110.890625 174.148438 112.15625 C 171.804688 112.75 169.351562 113.148438 166.933594 113.246094 C 166.113281 113.277344 165.246094 113.273438 164.445312 113.148438 C 164.105469 113.09375 163.773438 113.011719 163.441406 112.914062 C 163.125 112.820312 163.171875 112.847656 162.792969 112.609375 C 162.765625 112.582031 162.730469 112.542969 162.703125 112.511719 C 162.71875 112.464844 162.753906 112.363281 162.765625 112.324219 C 162.804688 112.25 162.847656 112.175781 162.890625 112.101562 C 163.414062 111.207031 164.800781 110.265625 165.859375 109.613281 C 167.667969 108.507812 169.628906 107.601562 171.53125 106.675781 C 173.574219 105.675781 175.660156 104.753906 177.777344 103.917969 C 186.078125 100.632812 195.386719 98.34375 204.324219 99.925781 C 205.125 100.066406 205.929688 99.722656 206.160156 98.882812 C 206.359375 98.15625 205.917969 97.1875 205.117188 97.046875 C 194.496094 95.167969 183.710938 98.101562 173.984375 102.28125 C 171.636719 103.289062 169.335938 104.40625 167.074219 105.59375 C 165.09375 106.632812 163.125 107.625 161.476562 109.175781 C 160.539062 110.058594 159.589844 111.382812 159.734375 112.746094 C 159.902344 114.285156 161.003906 115.15625 162.363281 115.691406 C 164.011719 116.347656 165.996094 116.296875 167.730469 116.1875 C 170.242188 116.03125 172.792969 115.578125 175.226562 114.960938 C 180.238281 113.691406 184.984375 111.527344 190.09375 110.613281 C 192.550781 110.171875 195.046875 110.183594 197.46875 110.785156 C 198.402344 111.019531 199.328125 111.300781 200.179688 111.753906 C 200.46875 111.90625 200.71875 112.09375 200.824219 112.191406 C 200.847656 112.210938 200.941406 112.332031 200.984375 112.378906 C 200.996094 112.398438 201.007812 112.417969 201.019531 112.441406 C 201.023438 112.449219 201.023438 112.457031 201.027344 112.464844 C 201.027344 112.476562 201.027344 112.488281 201.027344 112.5 C 201.027344 112.503906 201.027344 112.507812 201.027344 112.511719 C 201.023438 112.523438 201.023438 112.53125 201.019531 112.546875 C 201.011719 112.582031 200.96875 112.691406 200.949219 112.746094 C 200.902344 112.828125 200.855469 112.90625 200.808594 112.988281 C 200.644531 113.257812 200.675781 113.199219 200.394531 113.503906 C 200.121094 113.804688 199.816406 114.074219 199.507812 114.339844 C 198.1875 115.46875 196.632812 116.355469 195.136719 117.226562 C 191.277344 119.480469 187.347656 121.460938 183.257812 123.257812 C 178.449219 125.371094 173.59375 127.390625 168.992188 129.941406 C 165.347656 131.964844 161.871094 134.414062 158.816406 137.265625 C 156.621094 139.3125 154.359375 141.738281 153.351562 144.625 C 152.386719 147.386719 154.058594 149.640625 156.789062 150.203125 C 160.933594 151.0625 165.355469 149.78125 169.160156 148.195312 C 173.636719 146.328125 177.839844 143.878906 182.257812 141.875 C 184.472656 140.875 186.765625 140.191406 189.09375 139.519531 C 191.417969 138.847656 193.746094 138.269531 196.144531 138.089844 C 196.148438 138.160156 196.152344 138.226562 196.152344 138.296875 C 196.160156 138.5625 196.148438 138.828125 196.132812 139.09375 C 196.125 139.226562 196.113281 139.355469 196.101562 139.488281 C 196.09375 139.53125 196.09375 139.554688 196.09375 139.566406 C 196.089844 139.585938 196.078125 139.640625 196.0625 139.746094 C 195.972656 140.273438 195.832031 140.789062 195.667969 141.296875 C 195.441406 141.996094 195.410156 142.050781 195.078125 142.714844 C 193.90625 145.066406 192.363281 146.78125 190.472656 148.636719 C 186.035156 152.996094 180.820312 156.496094 175.894531 160.261719 C 171.132812 163.898438 166.164062 167.78125 162.976562 172.953125 C 160.527344 176.929688 159.21875 183.015625 162.355469 187.011719 C 164.957031 190.324219 169.875 189.105469 173.21875 187.878906 C 177.960938 186.136719 182.355469 183.566406 186.875 181.332031 C 188.941406 180.3125 190.328125 179.617188 192.488281 178.992188 C 192.871094 178.882812 193.261719 178.789062 193.65625 178.714844 C 193.722656 178.703125 193.765625 178.695312 193.800781 178.6875 C 193.820312 178.6875 193.847656 178.683594 193.886719 178.679688 C 194.082031 178.660156 194.277344 178.652344 194.472656 178.648438 C 194.605469 178.648438 194.738281 178.65625 194.871094 178.664062 C 194.929688 178.675781 194.988281 178.6875 195.042969 178.703125 C 195.101562 178.714844 195.21875 178.757812 195.292969 178.785156 C 195.324219 178.800781 195.351562 178.816406 195.382812 178.835938 C 195.4375 178.878906 195.535156 178.957031 195.582031 179.003906 C 195.585938 179.011719 195.589844 179.015625 195.59375 179.019531 C 195.605469 179.039062 195.617188 179.058594 195.636719 179.089844 C 195.667969 179.140625 195.726562 179.265625 195.761719 179.34375 C 195.808594 179.480469 195.847656 179.617188 195.882812 179.757812 C 195.898438 179.839844 195.914062 179.921875 195.929688 180.003906 C 195.929688 180.007812 195.929688 180.007812 195.929688 180.007812 C 195.953125 180.21875 195.957031 180.429688 195.964844 180.640625 C 195.964844 180.683594 195.953125 180.785156 195.945312 180.839844 C 195.933594 180.910156 195.917969 180.984375 195.902344 181.054688 C 195.832031 181.355469 195.734375 181.648438 195.628906 181.941406 C 195.519531 182.253906 195.558594 182.148438 195.378906 182.539062 C 195.242188 182.832031 195.089844 183.121094 194.9375 183.40625 C 194.5625 184.097656 194.140625 184.765625 193.707031 185.417969 C 192.761719 186.847656 191.714844 188.199219 190.636719 189.527344 C 188.214844 192.507812 185.621094 195.34375 183.046875 198.191406 C 181.0625 200.386719 178.984375 202.566406 177.289062 205 C 173.5625 210.335938 169.621094 215.863281 167.761719 222.183594 C 166.949219 224.941406 166.605469 228.386719 168.628906 230.722656 C 169.746094 232.007812 171.464844 232.183594 173.039062 231.953125 C 174.789062 231.695312 176.472656 230.800781 177.988281 229.941406 C 179.949219 228.828125 181.804688 227.527344 183.628906 226.210938 C 187.539062 223.390625 191.304688 220.335938 195.402344 217.785156 C 196.246094 217.257812 197.113281 216.761719 198.003906 216.316406 C 198.199219 216.222656 198.394531 216.132812 198.589844 216.042969 C 198.636719 216.023438 198.679688 216.003906 198.722656 215.984375 C 198.769531 215.964844 198.859375 215.925781 198.894531 215.914062 C 199.273438 215.761719 199.660156 215.632812 200.054688 215.523438 C 200.21875 215.476562 200.386719 215.441406 200.554688 215.40625 C 200.617188 215.394531 200.675781 215.386719 200.734375 215.375 C 200.878906 215.359375 201.027344 215.355469 201.171875 215.351562 C 201.25 215.351562 201.449219 215.371094 201.539062 215.378906 C 201.605469 215.394531 201.671875 215.410156 201.734375 215.429688 C 201.769531 215.4375 201.804688 215.453125 201.839844 215.464844 C 201.921875 215.503906 201.996094 215.550781 202.070312 215.597656 C 202.128906 215.652344 202.1875 215.707031 202.242188 215.765625 C 202.257812 215.785156 202.273438 215.796875 202.285156 215.8125 C 202.292969 215.824219 202.304688 215.839844 202.316406 215.855469 C 202.402344 215.984375 202.476562 216.121094 202.546875 216.257812 C 202.558594 216.285156 202.570312 216.304688 202.578125 216.320312 C 202.585938 216.347656 202.601562 216.390625 202.621094 216.453125 C 202.695312 216.660156 202.75 216.875 202.800781 217.089844 C 202.839844 217.25 202.871094 217.417969 202.898438 217.582031 C 202.882812 217.503906 202.949219 218.019531 202.957031 218.117188 C 203.003906 218.703125 203.003906 219.292969 202.988281 219.878906 C 202.972656 220.527344 202.917969 221.175781 202.855469 221.820312 C 202.824219 222.097656 202.78125 222.488281 202.75 222.699219 C 202.730469 222.867188 202.703125 223.035156 202.683594 223.203125 C 202.683594 223.207031 202.683594 223.207031 202.683594 223.210938 C 202.578125 223.863281 202.40625 224.503906 202.234375 225.140625 C 200.953125 229.914062 199.355469 234.59375 198.078125 239.371094 C 196.652344 244.683594 195.242188 250.316406 195.417969 255.855469 C 195.484375 257.898438 195.804688 260.132812 196.976562 261.859375 C 198.167969 263.621094 200.058594 264.484375 202.15625 264.5 C 204.847656 264.523438 207.421875 263.484375 209.1875 261.441406 C 211.203125 259.109375 212.386719 256.175781 213.722656 253.4375 C 214.378906 252.09375 215.070312 250.765625 215.925781 249.535156 C 216.554688 248.628906 217.308594 247.859375 218.3125 247.351562 C 218.34375 247.34375 218.558594 247.25 218.574219 247.242188 C 218.710938 247.195312 218.851562 247.160156 218.992188 247.125 C 219.328125 247.039062 219.183594 247.0625 219.628906 247.046875 C 220.324219 247.019531 220.769531 247.109375 221.472656 247.347656 C 221.816406 247.46875 222.1875 247.734375 222.546875 248.097656 C 222.914062 248.472656 223.199219 248.972656 223.484375 249.609375 C 224.636719 252.164062 224.429688 255.820312 224.222656 258.75 C 224.023438 261.582031 223.5625 264.382812 223.273438 267.203125 C 222.726562 272.539062 221.019531 281.746094 227.304688 284.492188 C 230.652344 285.953125 234.417969 285.046875 237.03125 282.59375 C 239.503906 280.277344 240.765625 276.84375 241.769531 273.691406 C 242.671875 270.855469 243.335938 267.507812 244.515625 265.027344 C 245.355469 263.261719 246.265625 261.464844 247.570312 259.996094 C 248.027344 259.484375 248.4375 259.125 248.878906 258.84375 C 248.996094 258.769531 249.121094 258.707031 249.246094 258.640625 C 249.277344 258.625 249.300781 258.613281 249.316406 258.601562 C 249.332031 258.59375 249.351562 258.589844 249.371094 258.582031 C 249.5 258.53125 250.023438 258.433594 250.015625 258.417969 C 250.171875 258.410156 250.332031 258.410156 250.488281 258.421875 C 250.59375 258.441406 250.699219 258.46875 250.804688 258.496094 C 250.878906 258.515625 250.953125 258.539062 251.03125 258.566406 C 251.058594 258.578125 251.082031 258.582031 251.097656 258.589844 C 251.105469 258.59375 251.113281 258.597656 251.125 258.601562 C 251.316406 258.6875 251.5 258.796875 251.683594 258.90625 C 252.144531 259.191406 252.128906 259.199219 252.574219 259.617188 C 252.992188 260.007812 253.367188 260.441406 253.726562 260.886719 C 255.195312 262.707031 256.441406 265.242188 257.480469 267.488281 C 258.621094 269.953125 259.605469 272.484375 260.589844 275.015625 C 260.753906 275.433594 260.914062 275.851562 261.078125 276.265625 C 260.871094 276.570312 260.773438 276.960938 260.859375 277.410156 C 261.503906 280.703125 261.734375 284.332031 263.925781 287.042969 C 265.734375 289.285156 269.390625 289.105469 271.394531 287.277344 C 273.300781 285.539062 273.695312 282.546875 273.890625 280.125 C 274.140625 277.085938 273.921875 274.011719 273.738281 270.972656 C 273.652344 269.550781 273.566406 268.132812 273.527344 266.710938 C 273.507812 266.128906 273.507812 265.550781 273.519531 264.96875 C 273.527344 264.710938 273.539062 264.457031 273.558594 264.199219 C 273.566406 264.078125 273.578125 263.960938 273.585938 263.84375 C 273.59375 263.792969 273.59375 263.757812 273.597656 263.730469 C 273.601562 263.71875 273.601562 263.707031 273.605469 263.691406 C 273.632812 263.496094 273.675781 263.304688 273.722656 263.113281 C 273.734375 263.058594 273.800781 262.871094 273.761719 262.953125 C 273.800781 262.863281 273.839844 262.773438 273.878906 262.683594 C 274.105469 262.183594 274.363281 261.699219 274.65625 261.234375 C 274.699219 261.167969 274.921875 260.855469 274.9375 260.824219 C 275.03125 260.710938 275.125 260.601562 275.226562 260.5 C 275.300781 260.417969 275.378906 260.347656 275.460938 260.273438 C 275.449219 260.289062 275.722656 260.082031 275.8125 260.03125 C 275.839844 260.019531 275.859375 260.007812 275.875 259.996094 C 275.886719 259.992188 275.898438 259.988281 275.914062 259.984375 C 275.96875 259.964844 276.027344 259.949219 276.082031 259.9375 C 276.152344 259.933594 276.304688 259.917969 276.378906 259.917969 C 276.402344 259.917969 276.421875 259.917969 276.4375 259.917969 C 276.460938 259.925781 276.484375 259.929688 276.523438 259.9375 C 276.65625 259.96875 276.785156 260.011719 276.914062 260.054688 C 276.960938 260.078125 277.011719 260.101562 277.058594 260.128906 C 277.328125 260.265625 277.582031 260.429688 277.824219 260.605469 C 277.820312 260.605469 278.097656 260.824219 278.164062 260.882812 C 278.308594 261.007812 278.453125 261.140625 278.59375 261.273438 C 278.921875 261.582031 279.230469 261.914062 279.53125 262.25 C 279.835938 262.585938 280.125 262.929688 280.410156 263.28125 C 280.558594 263.464844 280.707031 263.652344 280.851562 263.839844 C 280.859375 263.847656 280.863281 263.851562 280.867188 263.859375 C 280.878906 263.875 280.894531 263.894531 280.914062 263.921875 C 281.015625 264.050781 281.113281 264.183594 281.214844 264.3125 C 283.785156 267.738281 285.984375 271.503906 288.945312 274.621094 C 290.117188 275.855469 291.527344 277.050781 293.203125 277.503906 C 294.976562 277.984375 296.695312 277.328125 297.980469 276.082031 C 299.84375 274.273438 301.121094 271.449219 301.171875 268.875 C 301.25 265.046875 299.238281 261.285156 297.5625 257.96875 C 296.011719 254.90625 293.804688 251.421875 293.449219 248.046875 C 293.261719 246.261719 293.246094 244.242188 293.675781 242.488281 C 293.753906 242.164062 293.847656 241.929688 293.863281 241.902344 C 293.910156 241.796875 293.96875 241.703125 294.03125 241.605469 C 294.042969 241.59375 294.054688 241.582031 294.074219 241.5625 C 294.078125 241.554688 294.085938 241.550781 294.089844 241.542969 C 294.097656 241.539062 294.105469 241.535156 294.113281 241.53125 C 294.128906 241.527344 294.148438 241.523438 294.164062 241.519531 C 294.199219 241.519531 294.234375 241.519531 294.269531 241.519531 C 294.113281 241.519531 294.617188 241.589844 294.738281 241.625 C 294.824219 241.652344 294.90625 241.683594 294.988281 241.714844 C 294.863281 241.667969 295.167969 241.792969 295.203125 241.808594 C 295.800781 242.089844 296.363281 242.445312 296.917969 242.800781 C 298.226562 243.652344 299.476562 244.59375 300.761719 245.484375 C 303.238281 247.191406 305.839844 248.5625 308.636719 249.660156 C 311.753906 250.886719 315.285156 251.964844 318.664062 251.429688 C 321.796875 250.933594 323.234375 247.882812 322.464844 244.984375 C 321.652344 241.9375 319.058594 239.417969 316.851562 237.316406 C 314.335938 234.925781 311.597656 232.785156 309.070312 230.410156 C 308.589844 229.957031 308.121094 229.492188 307.671875 229.003906 C 307.507812 228.824219 307.347656 228.636719 307.191406 228.445312 C 307.179688 228.429688 307.054688 228.265625 307.039062 228.246094 C 306.949219 228.117188 306.863281 227.984375 306.78125 227.851562 C 306.632812 227.605469 306.378906 226.921875 306.214844 226.363281 C 306.136719 226.09375 306.074219 225.820312 306.019531 225.542969 C 306.015625 225.519531 306.003906 225.414062 305.992188 225.347656 C 305.980469 225.226562 305.972656 225.101562 305.96875 224.980469 C 305.96875 224.894531 306 224.574219 306 224.5 C 306.015625 224.429688 306.03125 224.359375 306.050781 224.285156 C 306.066406 224.273438 306.164062 224.042969 306.21875 223.945312 C 306.28125 223.875 306.351562 223.808594 306.421875 223.742188 C 306.496094 223.695312 306.570312 223.648438 306.644531 223.605469 C 306.71875 223.566406 306.792969 223.527344 306.867188 223.492188 C 306.875 223.488281 306.878906 223.488281 306.886719 223.484375 C 307.078125 223.414062 307.273438 223.359375 307.472656 223.308594 C 307.582031 223.28125 308.113281 223.195312 308.058594 223.195312 C 310.117188 222.949219 312.40625 223.265625 314.222656 223.53125 C 316.863281 223.917969 319.484375 224.429688 322.117188 224.84375 C 324.660156 225.246094 327.242188 225.609375 329.824219 225.566406 C 331.820312 225.535156 334.078125 225.25 335.722656 224.015625 C 336.398438 223.507812 336.664062 222.761719 336.257812 221.976562 C 335.042969 219.625 332.511719 217.945312 330.421875 216.460938 C 327.558594 214.429688 324.558594 212.597656 321.652344 210.625 C 320.320312 209.71875 319.003906 208.789062 317.753906 207.769531 C 317.207031 207.324219 316.679688 206.855469 316.171875 206.367188 C 315.9375 206.144531 315.714844 205.914062 315.496094 205.675781 C 315.390625 205.566406 315.292969 205.449219 315.191406 205.332031 C 315.164062 205.304688 314.960938 205.046875 314.929688 205.015625 C 314.785156 204.816406 314.648438 204.609375 314.515625 204.398438 C 314.46875 204.316406 314.261719 203.902344 314.246094 203.894531 C 314.175781 203.710938 314.121094 203.527344 314.078125 203.335938 C 314.070312 203.316406 314.066406 203.300781 314.066406 203.289062 C 314.054688 203.164062 314.054688 203.039062 314.0625 202.917969 C 314.0625 202.910156 314.066406 202.902344 314.066406 202.890625 C 314.070312 202.875 314.078125 202.859375 314.085938 202.835938 C 314.105469 202.796875 314.132812 202.757812 314.15625 202.714844 C 314.15625 202.714844 314.160156 202.714844 314.160156 202.710938 C 314.222656 202.640625 314.292969 202.578125 314.363281 202.511719 C 314.367188 202.507812 314.371094 202.507812 314.375 202.503906 C 314.378906 202.5 314.378906 202.5 314.382812 202.5 C 314.59375 202.347656 314.824219 202.226562 315.058594 202.113281 C 315.078125 202.101562 315.097656 202.09375 315.113281 202.085938 C 315.125 202.082031 315.136719 202.078125 315.152344 202.070312 C 315.269531 202.023438 315.394531 201.980469 315.515625 201.941406 C 315.78125 201.847656 316.046875 201.773438 316.316406 201.703125 C 316.976562 201.53125 317.652344 201.417969 318.328125 201.320312 C 319.570312 201.140625 321.34375 201.058594 322.789062 201.019531 C 326.195312 200.929688 329.601562 201.078125 333.003906 201.210938 C 335.515625 201.308594 338.019531 201.425781 340.53125 201.238281 C 343.984375 200.980469 348.371094 200.394531 350.972656 197.84375 C 353.050781 195.808594 352.128906 193.097656 350.242188 191.328125 C 347.398438 188.660156 343.472656 187.28125 339.753906 186.390625 C 333.203125 184.820312 325.824219 184.554688 320.425781 180.183594 C 324.617188 176.851562 330.722656 176.5 335.980469 176.089844 C 342.234375 175.605469 349.289062 175.402344 354.59375 171.613281 C 357.476562 169.550781 359.375 166.597656 360.445312 163.242188 C 360.691406 162.464844 360.160156 161.621094 359.402344 161.40625 C 354.167969 159.933594 348.707031 159.445312 343.308594 158.972656 C 338.308594 158.53125 333.101562 158.359375 328.382812 156.472656 C 327.847656 156.261719 327.011719 155.792969 326.726562 155.566406 C 326.625 155.484375 326.226562 155.066406 326.25 155.121094 C 326.1875 155.03125 326.132812 154.941406 326.082031 154.84375 C 326.082031 154.84375 326.078125 154.839844 326.078125 154.839844 C 326.074219 154.824219 326.046875 154.6875 326.046875 154.621094 C 326.046875 154.613281 326.046875 154.609375 326.046875 154.601562 C 326.050781 154.589844 326.050781 154.582031 326.054688 154.566406 C 326.0625 154.53125 326.113281 154.390625 326.125 154.347656 Z M 326.125 154.347656 " fill-opacity="1" fill-rule="nonzero"/></svg>