<svg xmlns="http://www.w3.org/2000/svg" xmlns:xlink="http://www.w3.org/1999/xlink" width="500" zoomAndPan="magnify" viewBox="0 0 375 374.999991" height="500" preserveAspectRatio="xMidYMid meet" version="1.0"><path fill="#c42217" d="M 14.910156 141.289062 L 87.464844 31.914062 C 88.691406 30.15625 90.605469 29.007812 92.746094 28.929688 L 152.214844 26.636719 C 155.964844 26.480469 159.105469 29.542969 159.105469 33.371094 L 159.105469 322.910156 C 159.105469 326.585938 156.195312 329.644531 152.523438 329.644531 L 105.683594 330.179688 C 102.085938 330.257812 99.097656 327.425781 99.023438 323.753906 L 90.449219 133.785156 C 90.144531 126.976562 81.035156 124.832031 77.976562 130.953125 L 59.375 166.851562 C 57.617188 170.21875 53.484375 171.441406 50.269531 169.605469 L 17.203125 150.929688 C 13.835938 149.019531 12.765625 144.578125 14.910156 141.289062 Z M 177.472656 94.675781 C 187.117188 58.550781 203.34375 48.753906 210.15625 43.398438 C 217.347656 37.65625 272.226562 0 324.195312 44.851562 C 374.863281 88.554688 333.074219 157.128906 330.929688 160.574219 C 330.855469 160.726562 330.777344 160.726562 330.777344 160.882812 C 328.25 165.320312 271.921875 266.347656 273.605469 260.378906 L 357.183594 265.429688 C 361.007812 265.660156 363.917969 268.953125 363.535156 272.855469 L 359.25 325.894531 C 358.941406 329.570312 355.730469 332.402344 352.054688 332.171875 L 196.226562 322.757812 C 192.628906 322.527344 189.871094 319.542969 189.796875 316.023438 L 189.566406 273.695312 C 189.566406 272.011719 190.179688 270.40625 191.25 269.179688 L 273.757812 173.433594 C 273.988281 173.203125 274.140625 172.898438 274.371094 172.667969 C 277.738281 167.234375 310.800781 113.121094 278.65625 97.585938 C 252.402344 84.878906 235.640625 105.238281 229.441406 114.957031 C 227.757812 117.636719 224.3125 118.785156 221.328125 117.714844 L 181.683594 103.019531 C 178.390625 101.566406 176.632812 98.042969 177.472656 94.675781 Z M 177.472656 94.675781 " fill-opacity="1" fill-rule="nonzero"/><path fill="#2b46bd" d="M 96.269531 333.550781 C 90.605469 333.550781 85.859375 329.035156 85.628906 323.292969 L 77.058594 133.25 C 76.980469 131.414062 75.527344 130.878906 74.992188 130.726562 C 74.378906 130.574219 72.925781 130.496094 72.082031 132.101562 L 53.484375 168 C 52.105469 170.601562 49.886719 172.515625 47.128906 173.28125 C 44.375 174.121094 41.46875 173.816406 38.941406 172.363281 L 5.953125 153.761719 C 3.351562 152.308594 1.515625 149.785156 0.824219 146.875 C 0.136719 143.964844 0.671875 140.828125 2.355469 138.378906 L 5.648438 140.597656 L 2.355469 138.378906 L 74.761719 29.007812 C 76.675781 26.175781 79.8125 24.414062 83.179688 24.261719 L 142.648438 21.890625 C 145.558594 21.738281 148.3125 22.808594 150.378906 24.875 C 152.523438 26.863281 153.59375 29.695312 153.59375 32.605469 L 153.59375 322.144531 C 153.59375 328.039062 148.925781 332.859375 143.109375 332.9375 L 96.269531 333.472656 C 96.34375 333.550781 96.34375 333.550781 96.269531 333.550781 Z M 74.378906 122.613281 C 75.21875 122.613281 75.910156 122.6875 76.75 122.84375 C 81.496094 123.914062 84.789062 127.894531 85.09375 132.867188 L 93.664062 322.910156 C 93.742188 324.363281 94.890625 325.511719 96.269531 325.511719 L 143.109375 324.976562 C 144.5625 324.976562 145.710938 323.753906 145.710938 322.296875 L 145.710938 32.679688 C 145.710938 31.914062 145.40625 31.226562 144.867188 30.691406 C 144.332031 30.15625 143.644531 29.925781 142.957031 29.925781 L 83.484375 32.222656 C 82.644531 32.296875 81.878906 32.757812 81.34375 33.445312 L 8.9375 142.894531 C 8.402344 143.738281 8.402344 144.578125 8.554688 145.039062 C 8.710938 145.496094 8.9375 146.261719 9.855469 146.722656 L 42.84375 165.320312 C 43.457031 165.703125 44.222656 165.78125 44.910156 165.550781 C 45.601562 165.398438 46.136719 164.859375 46.519531 164.25 L 65.117188 128.351562 C 66.953125 124.753906 70.550781 122.613281 74.378906 122.613281 Z M 342.335938 334.851562 L 186.582031 325.4375 C 180.839844 325.054688 176.402344 320.382812 176.324219 314.644531 L 176.019531 272.320312 C 176.019531 269.71875 176.9375 267.191406 178.699219 265.125 L 261.207031 169.375 C 261.28125 169.222656 261.359375 169.222656 261.433594 169.070312 C 269.777344 155.753906 282.789062 128.734375 277.96875 112.125 C 276.359375 106.464844 272.914062 102.484375 267.40625 99.804688 C 244.828125 88.859375 230.132812 105.007812 223.394531 115.722656 C 220.640625 120.011719 215.207031 121.847656 210.382812 120.085938 L 170.738281 105.390625 C 165.457031 103.402344 162.550781 97.816406 163.925781 92.304688 C 173.1875 57.9375 188.1875 46.382812 196.378906 40.257812 C 197.066406 39.722656 197.679688 39.261719 198.214844 38.804688 C 198.980469 38.269531 215.820312 24.949219 240.082031 19.746094 C 268.09375 13.777344 294.804688 20.816406 317.382812 40.335938 C 339.351562 59.316406 347.84375 85.875 341.875 117.179688 C 337.359375 140.828125 326.183594 159.351562 324.882812 161.339844 L 324.808594 161.492188 C 323.277344 164.25 309.421875 189.046875 295.722656 213.234375 C 287.765625 227.390625 281.335938 238.566406 276.664062 246.601562 C 274.597656 250.199219 272.839844 253.109375 271.460938 255.480469 L 347.84375 260.074219 C 350.832031 260.226562 353.507812 261.527344 355.421875 263.824219 C 357.414062 266.042969 358.332031 268.875 358.023438 271.859375 L 353.738281 324.898438 C 353.433594 330.71875 348.226562 335.15625 342.335938 334.851562 Z M 255.003906 88.09375 C 260.285156 88.402344 265.566406 89.855469 271.003906 92.535156 C 278.578125 96.207031 283.628906 102.101562 285.925781 109.984375 C 292.585938 133.328125 272.457031 167.003906 268.398438 173.507812 C 268.09375 173.96875 267.789062 174.429688 267.40625 174.8125 L 184.898438 270.480469 C 184.515625 270.941406 184.285156 271.628906 184.207031 272.320312 L 184.4375 314.644531 C 184.4375 316.023438 185.585938 317.246094 187.039062 317.324219 L 342.871094 326.738281 C 344.324219 326.8125 345.625 325.664062 345.777344 324.210938 L 350.066406 271.171875 C 350.140625 270.40625 349.910156 269.71875 349.453125 269.179688 C 348.992188 268.644531 348.304688 268.261719 347.539062 268.261719 L 265.339844 263.289062 C 264.574219 263.59375 263.578125 263.59375 262.582031 263.132812 C 260.898438 262.445312 259.597656 260.378906 260.210938 257.929688 L 261.128906 254.792969 L 262.351562 254.867188 C 268.476562 245.226562 294.5 199.226562 317.765625 157.511719 C 317.84375 157.359375 317.917969 157.207031 318.074219 157.054688 C 319.832031 154.222656 360.167969 88.09375 312.179688 46.609375 C 291.132812 28.625 267.558594 22.347656 241.765625 27.859375 C 219.261719 32.679688 203.878906 44.773438 203.191406 45.308594 C 202.578125 45.769531 201.890625 46.226562 201.199219 46.839844 C 194.003906 52.351562 180.382812 62.605469 171.964844 94.371094 C 171.65625 95.746094 172.269531 97.203125 173.648438 97.660156 L 213.292969 112.355469 C 214.441406 112.816406 215.820312 112.355469 216.507812 111.285156 C 220.105469 105.621094 226.226562 97.816406 235.03125 92.761719 C 241.304688 89.242188 248.039062 87.636719 255.003906 88.09375 Z M 255.003906 88.09375 " fill-opacity="1" fill-rule="nonzero"/></svg>