<svg xmlns="http://www.w3.org/2000/svg" xmlns:xlink="http://www.w3.org/1999/xlink" width="500" zoomAndPan="magnify" viewBox="0 0 375 374.999991" height="500" preserveAspectRatio="xMidYMid meet" version="1.0"><path fill="#ffffff" d="M 90.628906 354 C 88.386719 354 86.28125 353.523438 84.414062 352.539062 C 81.121094 350.839844 78.574219 348.054688 76.539062 345.78125 C 76.199219 345.375 75.824219 345 75.519531 344.660156 C 56.128906 323.976562 48.320312 293.679688 55.351562 266.953125 C 54.261719 258.632812 58.234375 250.75 65.0625 246.609375 C 64.347656 239.035156 64.347656 230.644531 65.027344 220.695312 C 65.332031 216.378906 65.707031 212.304688 66.113281 208.398438 C 49.507812 210.808594 32.398438 213.289062 16.066406 217.46875 C 15.214844 217.671875 14.402344 217.773438 13.585938 217.773438 C 12.195312 217.773438 10.871094 217.5 9.613281 216.925781 C 6.863281 215.835938 4.824219 213.492188 4.011719 210.574219 L 3.839844 209.894531 C 2.449219 204.832031 1.023438 199.601562 0.480469 194.066406 C 0.105469 190.160156 2.007812 186.5625 5.300781 184.761719 C 15.113281 177.289062 25.097656 169.648438 34.707031 162.242188 C 69.101562 135.820312 104.652344 108.511719 141.390625 83.789062 C 141.660156 79.507812 143.222656 75.570312 145.972656 72.136719 C 149.03125 68.300781 153.445312 66.195312 158.402344 66.195312 C 161.320312 66.195312 164.273438 66.941406 167.027344 68.335938 C 195.140625 53.289062 224.882812 43.878906 255.410156 34.8125 C 267.667969 31.179688 279.957031 26.558594 291.839844 22.144531 C 295.746094 20.683594 299.683594 19.222656 303.589844 17.796875 C 320.972656 11.410156 336.761719 5.839844 351.804688 0.746094 C 353.027344 0.238281 354.25 0 355.539062 0 C 355.84375 0 356.152344 0 356.457031 0.0351562 C 357.476562 0.136719 358.460938 0.375 359.375 0.746094 C 361.3125 1.425781 363.011719 2.683594 364.230469 4.382812 L 372.074219 15.25 C 374.894531 19.121094 374.519531 24.214844 371.191406 27.542969 C 370.617188 28.222656 369.902344 28.800781 369.15625 29.277344 C 347.050781 43.507812 326.917969 56.992188 307.597656 70.574219 C 304.304688 72.917969 300.839844 75.363281 297.242188 77.980469 C 310.789062 87.015625 323.214844 97.609375 334.25 109.566406 C 336.117188 111.605469 337.035156 114.152344 336.898438 116.800781 C 336.898438 117.140625 336.863281 117.648438 336.761719 118.226562 C 333.4375 139.828125 328.648438 156.707031 321.652344 171.378906 C 314.21875 186.933594 303.625 199.773438 290.109375 209.554688 C 274.082031 221.203125 255.441406 228.710938 242.8125 233.328125 C 211.84375 244.535156 177.753906 250.308594 141.425781 250.308594 C 138.84375 250.308594 136.195312 250.277344 133.582031 250.207031 C 130.761719 250.140625 128.148438 248.917969 126.347656 246.878906 C 126.109375 246.609375 125.804688 246.269531 125.5 245.859375 C 122.273438 241.308594 119.355469 236.453125 116.773438 231.390625 C 116.535156 230.984375 116.332031 230.578125 116.128906 230.136719 C 114.160156 226.128906 112.394531 221.984375 110.898438 217.773438 C 110.59375 217.09375 110.320312 216.414062 110.152344 215.667969 C 108.625 211.148438 107.402344 206.53125 106.417969 201.808594 C 103.800781 202.355469 101.019531 202.863281 98.0625 203.40625 C 96.636719 210.539062 95.621094 218.011719 95.007812 225.71875 C 94.464844 232.511719 93.988281 241.140625 94.738281 249.765625 C 98.371094 251.769531 101.324219 254.757812 103.191406 258.324219 C 105.058594 261.960938 105.738281 265.96875 105.195312 269.941406 C 109.234375 276.835938 114.972656 283.1875 120.574219 289.367188 L 120.644531 289.4375 C 122.003906 290.929688 123.5625 292.425781 125.195312 294.019531 C 128.316406 297.042969 131.507812 300.167969 134.125 303.902344 C 135.820312 306.347656 136.261719 309.304688 135.480469 312.054688 C 133.308594 325.675781 126.347656 337.359375 115.824219 344.933594 C 110.085938 349.074219 103.191406 351.960938 95.960938 353.253906 L 95.3125 353.386719 C 93.988281 353.695312 92.429688 354 90.628906 354 Z M 90.628906 354 " fill-opacity="1" fill-rule="nonzero"/><path fill="#363636" d="M 365.761719 22.414062 C 365.589844 22.621094 365.386719 22.824219 365.148438 22.992188 C 344.265625 36.410156 323.621094 50.199219 303.351562 64.460938 C 296.867188 69.011719 290.449219 73.667969 284.066406 78.320312 C 300.667969 88.167969 315.710938 100.292969 328.816406 114.492188 C 329.394531 115.101562 329.566406 115.78125 329.496094 116.460938 C 329.496094 116.628906 329.496094 116.800781 329.464844 117.003906 C 326.78125 134.5625 322.636719 152.054688 314.964844 168.117188 C 308.207031 182.28125 298.460938 194.269531 285.730469 203.507812 C 272.046875 213.460938 256.085938 220.523438 240.230469 226.296875 C 206.207031 238.761719 169.878906 243.652344 133.75 242.839844 C 132.902344 242.804688 132.257812 242.464844 131.847656 241.921875 C 131.746094 241.820312 131.644531 241.683594 131.542969 241.546875 C 128.417969 237.132812 125.667969 232.511719 123.257812 227.722656 C 123.121094 227.519531 123.019531 227.316406 122.917969 227.078125 C 120.949219 223.070312 119.21875 218.960938 117.722656 214.785156 C 117.519531 214.480469 117.417969 214.105469 117.351562 213.765625 C 115.042969 207.039062 113.410156 200.078125 112.425781 192.945312 C 105.636719 194.507812 98.777344 195.832031 91.917969 197.019531 C 89.8125 206.292969 88.421875 215.734375 87.675781 225.144531 C 86.894531 234.957031 86.554688 245.113281 87.910156 254.929688 C 88.082031 254.960938 88.25 254.996094 88.421875 255.03125 C 95.414062 257.171875 99.695312 264.066406 97.417969 271.0625 C 101.902344 279.722656 108.726562 287.261719 115.210938 294.429688 C 119.320312 298.945312 124.617188 303.15625 128.113281 308.183594 C 128.589844 308.898438 128.625 309.679688 128.316406 310.355469 C 126.652344 321.769531 120.949219 332.230469 111.511719 339.023438 C 106.554688 342.621094 100.679688 345 94.667969 346.085938 C 92.257812 346.527344 89.914062 347.105469 87.742188 346.019531 C 85.195312 344.695312 82.785156 341.738281 80.847656 339.667969 C 63.160156 320.785156 55.65625 292.324219 62.886719 267.359375 C 62.820312 267.15625 62.785156 266.953125 62.75 266.714844 C 61.496094 259.648438 66.046875 252.824219 73.039062 251.328125 C 71.546875 241.410156 71.683594 231.1875 72.359375 221.269531 C 72.835938 214.34375 73.550781 207.074219 74.703125 199.773438 C 54.46875 202.761719 34.128906 205.34375 14.230469 210.402344 C 13.585938 210.574219 13.007812 210.472656 12.535156 210.234375 C 11.886719 209.996094 11.34375 209.453125 11.074219 208.601562 C 9.714844 203.609375 8.289062 198.515625 7.78125 193.386719 C 7.679688 192.199219 8.289062 191.453125 9.105469 191.113281 C 9.105469 191.113281 9.136719 191.113281 9.136719 191.078125 C 55.28125 156.027344 100.644531 119.855469 148.859375 87.660156 C 148.28125 83.921875 148.996094 80.121094 151.679688 76.792969 C 155.414062 72.136719 161.695312 73.054688 166.007812 76.417969 C 166.246094 76.585938 166.480469 76.792969 166.6875 76.996094 C 166.855469 76.824219 167.027344 76.6875 167.261719 76.554688 C 195.648438 60.828125 226.511719 51.046875 257.445312 41.84375 C 273.949219 36.953125 289.941406 30.566406 306.070312 24.65625 C 322.128906 18.78125 338.222656 13.042969 354.417969 7.574219 C 354.859375 7.371094 355.300781 7.269531 355.710938 7.335938 C 356.050781 7.371094 356.390625 7.472656 356.625 7.609375 C 357.203125 7.742188 357.746094 8.050781 358.15625 8.625 C 360.769531 12.261719 363.382812 15.859375 365.996094 19.496094 C 366.878906 20.617188 366.542969 21.703125 365.761719 22.414062 Z M 365.761719 22.414062 " fill-opacity="1" fill-rule="nonzero"/><path fill="#fac068" d="M 366.03125 19.460938 C 363.417969 15.828125 360.804688 12.226562 358.1875 8.59375 C 357.78125 8.015625 357.238281 7.675781 356.660156 7.574219 C 356.390625 7.402344 356.082031 7.300781 355.742188 7.300781 C 355.335938 7.234375 354.894531 7.335938 354.453125 7.539062 C 338.257812 13.007812 322.164062 18.746094 306.101562 24.625 C 289.972656 30.53125 273.949219 36.917969 257.480469 41.808594 C 226.546875 51.011719 195.683594 60.828125 167.296875 76.519531 C 167.058594 76.65625 166.890625 76.792969 166.71875 76.960938 C 166.480469 76.757812 166.277344 76.554688 166.039062 76.382812 C 161.730469 73.019531 155.480469 72.070312 151.710938 76.757812 C 149.03125 80.085938 148.316406 83.890625 148.894531 87.625 C 100.679688 119.824219 55.316406 155.992188 9.171875 191.042969 C 9.171875 191.042969 9.136719 191.042969 9.136719 191.078125 C 8.324219 191.382812 7.675781 192.128906 7.8125 193.351562 C 8.324219 198.515625 9.75 203.609375 11.105469 208.570312 C 11.34375 209.453125 11.886719 209.960938 12.566406 210.199219 C 13.042969 210.4375 13.621094 210.503906 14.265625 210.367188 C 34.128906 205.308594 54.46875 202.726562 74.738281 199.738281 C 73.617188 207.039062 72.902344 214.308594 72.394531 221.238281 C 71.714844 231.15625 71.578125 241.378906 73.074219 251.292969 C 66.113281 252.789062 61.53125 259.617188 62.785156 266.679688 C 62.820312 266.882812 62.886719 267.121094 62.921875 267.324219 C 55.6875 292.289062 63.191406 320.75 80.882812 339.632812 C 82.820312 341.707031 85.195312 344.660156 87.777344 345.984375 C 89.949219 347.105469 92.292969 346.492188 94.703125 346.050781 C 100.710938 344.964844 106.585938 342.589844 111.542969 338.988281 C 120.984375 332.195312 126.652344 321.734375 128.351562 310.324219 C 128.65625 309.644531 128.625 308.863281 128.148438 308.148438 C 124.652344 303.121094 119.320312 298.910156 115.246094 294.394531 C 108.761719 287.226562 101.933594 279.6875 97.453125 271.027344 C 99.726562 264.03125 95.449219 257.136719 88.457031 254.996094 C 88.285156 254.929688 88.117188 254.929688 87.945312 254.894531 C 86.585938 245.046875 86.925781 234.890625 87.707031 225.109375 C 88.457031 215.667969 89.8125 206.226562 91.953125 196.988281 C 98.8125 195.796875 105.671875 194.507812 112.460938 192.910156 C 113.445312 200.042969 115.074219 207.007812 117.382812 213.730469 C 117.453125 214.105469 117.554688 214.445312 117.757812 214.75 C 119.21875 218.960938 120.949219 223.070312 122.953125 227.042969 C 123.019531 227.28125 123.15625 227.488281 123.292969 227.691406 C 125.703125 232.480469 128.453125 237.097656 131.578125 241.511719 C 131.679688 241.648438 131.78125 241.785156 131.882812 241.886719 C 132.289062 242.394531 132.902344 242.769531 133.785156 242.804688 C 169.910156 243.617188 206.277344 238.726562 240.300781 226.265625 C 256.15625 220.457031 272.082031 213.425781 285.796875 203.472656 C 298.53125 194.238281 308.242188 182.246094 315.03125 168.085938 C 322.707031 151.984375 326.816406 134.496094 329.53125 116.96875 C 329.566406 116.800781 329.566406 116.597656 329.566406 116.425781 C 329.632812 115.78125 329.429688 115.066406 328.886719 114.457031 C 315.78125 100.292969 300.738281 88.136719 284.132812 78.285156 C 290.515625 73.597656 296.933594 68.980469 303.421875 64.429688 C 323.726562 50.164062 344.367188 36.375 365.21875 22.960938 C 365.488281 22.789062 365.691406 22.585938 365.828125 22.382812 C 366.542969 21.703125 366.878906 20.617188 366.03125 19.460938 Z M 75.621094 194.507812 C 75.449219 194.507812 75.316406 194.507812 75.144531 194.542969 C 55.144531 197.53125 35.046875 200.011719 15.386719 204.800781 C 14.503906 201.675781 13.652344 198.480469 13.179688 195.289062 C 34.367188 190.125 56.097656 188.089844 77.65625 184.964844 C 76.875 188.121094 76.199219 191.316406 75.621094 194.507812 Z M 154.597656 82.054688 C 157.449219 75.875 163.699219 80.253906 166.210938 84.363281 C 168.28125 87.726562 169.164062 91.699219 170.046875 95.503906 C 169.367188 98.050781 167.058594 99.816406 164.378906 99.613281 C 164.207031 99.582031 164.070312 99.613281 163.9375 99.613281 C 157.960938 96.863281 151.472656 88.847656 154.597656 82.054688 Z M 314.523438 107.425781 C 317.882812 110.550781 321.109375 113.777344 324.269531 117.140625 C 319.648438 146.347656 310.6875 176.949219 286.816406 196.238281 C 273.539062 206.972656 257.378906 214.34375 241.488281 220.355469 C 225.597656 226.367188 209.09375 230.78125 192.355469 233.632812 C 173.441406 236.894531 154.257812 238.050781 135.074219 237.710938 C 133.070312 234.789062 131.238281 231.800781 129.507812 228.710938 C 163.257812 228.4375 197.007812 223.105469 228.652344 211.117188 C 244.40625 205.136719 260.195312 197.972656 273.640625 187.714844 C 285.59375 178.578125 294.695312 166.828125 301.078125 153.242188 C 307.902344 138.773438 311.875 123.183594 314.523438 107.425781 Z M 296.800781 92.855469 C 292.179688 120.265625 283.558594 148.863281 261.792969 167.542969 C 249.773438 177.832031 235.105469 185 220.539062 190.941406 C 205.9375 196.917969 190.792969 201.503906 175.34375 204.730469 C 157.6875 208.433594 139.726562 210.265625 121.695312 210.707031 C 119.691406 204.5625 118.234375 198.242188 117.417969 191.757812 C 128.351562 189.007812 139.046875 185.472656 149.234375 180.550781 C 167.433594 171.785156 183.121094 158.847656 198.46875 145.90625 C 224.851562 123.660156 251.808594 102.09375 279.550781 81.613281 C 285.527344 85.078125 291.265625 88.8125 296.800781 92.855469 Z M 256.359375 92.617188 C 239.28125 105.726562 222.472656 119.175781 205.9375 132.964844 C 189.980469 146.28125 174.425781 160.375 156.398438 170.902344 C 136.976562 182.28125 115.210938 187.648438 93.242188 191.585938 C 94.089844 188.292969 95.042969 185.066406 96.128906 181.875 L 96.128906 181.839844 C 114.292969 178.136719 132.15625 172.296875 148.214844 162.820312 C 165.394531 152.664062 180.402344 139.285156 195.546875 126.410156 C 227.292969 99.410156 261.148438 75.09375 295.746094 51.894531 C 315.40625 38.71875 335.269531 25.914062 355.167969 13.144531 C 356.832031 15.453125 358.527344 17.761719 360.191406 20.105469 C 324.675781 42.964844 289.871094 66.941406 256.359375 92.617188 Z M 256.359375 92.617188 " fill-opacity="1" fill-rule="nonzero"/><path fill="#575757" d="M 366.03125 19.460938 C 363.417969 15.828125 360.804688 12.226562 358.1875 8.59375 C 357.78125 8.015625 357.238281 7.675781 356.660156 7.574219 C 356.390625 7.402344 356.082031 7.300781 355.742188 7.300781 C 355.335938 7.234375 354.894531 7.335938 354.453125 7.539062 C 338.257812 13.007812 322.164062 18.746094 306.101562 24.625 C 289.972656 30.53125 273.949219 36.917969 257.480469 41.808594 C 226.546875 51.011719 195.683594 60.828125 167.296875 76.519531 C 167.058594 76.65625 166.890625 76.792969 166.71875 76.960938 C 166.480469 76.757812 166.277344 76.554688 166.039062 76.382812 C 161.730469 73.019531 155.480469 72.070312 151.710938 76.757812 C 149.03125 80.085938 148.316406 83.890625 148.894531 87.625 C 100.679688 119.824219 55.316406 155.992188 9.171875 191.042969 C 9.171875 191.042969 9.136719 191.042969 9.136719 191.078125 C 8.324219 191.382812 7.675781 192.128906 7.8125 193.351562 C 8.324219 198.515625 9.75 203.609375 11.105469 208.570312 C 11.34375 209.453125 11.886719 209.960938 12.566406 210.199219 C 13.042969 210.4375 13.621094 210.503906 14.265625 210.367188 C 34.128906 205.308594 54.46875 202.726562 74.738281 199.738281 C 73.617188 207.039062 72.902344 214.308594 72.394531 221.238281 C 71.714844 231.15625 71.578125 241.378906 73.074219 251.292969 C 66.113281 252.789062 61.53125 259.617188 62.785156 266.679688 C 62.820312 266.882812 62.886719 267.121094 62.921875 267.324219 C 55.6875 292.289062 63.191406 320.75 80.882812 339.632812 C 82.820312 341.707031 85.195312 344.660156 87.777344 345.984375 C 89.949219 347.105469 92.292969 346.492188 94.703125 346.050781 C 100.710938 344.964844 106.585938 342.589844 111.542969 338.988281 C 120.984375 332.195312 126.652344 321.734375 128.351562 310.324219 C 128.65625 309.644531 128.625 308.863281 128.148438 308.148438 C 124.652344 303.121094 119.320312 298.910156 115.246094 294.394531 C 108.761719 287.226562 101.933594 279.6875 97.453125 271.027344 C 99.726562 264.03125 95.449219 257.136719 88.457031 254.996094 C 88.285156 254.929688 88.117188 254.929688 87.945312 254.894531 C 86.585938 245.046875 86.925781 234.890625 87.707031 225.109375 C 88.457031 215.667969 89.8125 206.226562 91.953125 196.988281 C 98.8125 195.796875 105.671875 194.507812 112.460938 192.910156 C 113.445312 200.042969 115.074219 207.007812 117.382812 213.730469 C 117.453125 214.105469 117.554688 214.445312 117.757812 214.75 C 119.21875 218.960938 120.949219 223.070312 122.953125 227.042969 C 123.019531 227.28125 123.15625 227.488281 123.292969 227.691406 C 125.703125 232.480469 128.453125 237.097656 131.578125 241.511719 C 131.679688 241.648438 131.78125 241.785156 131.882812 241.886719 C 132.289062 242.394531 132.902344 242.769531 133.785156 242.804688 C 169.910156 243.617188 206.277344 238.726562 240.300781 226.265625 C 256.15625 220.457031 272.082031 213.425781 285.796875 203.472656 C 298.53125 194.238281 308.242188 182.246094 315.03125 168.085938 C 322.707031 151.984375 326.816406 134.496094 329.53125 116.96875 C 329.566406 116.800781 329.566406 116.597656 329.566406 116.425781 C 329.632812 115.78125 329.429688 115.066406 328.886719 114.457031 C 315.78125 100.292969 300.738281 88.136719 284.132812 78.285156 C 290.515625 73.597656 296.933594 68.980469 303.421875 64.429688 C 323.726562 50.164062 344.367188 36.375 365.21875 22.960938 C 365.488281 22.789062 365.691406 22.585938 365.828125 22.382812 C 366.542969 21.703125 366.878906 20.617188 366.03125 19.460938 Z M 154.597656 82.054688 C 157.449219 75.875 163.699219 80.253906 166.210938 84.363281 C 168.28125 87.726562 169.164062 91.699219 170.046875 95.503906 C 169.367188 98.050781 167.058594 99.816406 164.378906 99.613281 C 164.207031 99.582031 164.070312 99.613281 163.9375 99.613281 C 157.960938 96.863281 151.472656 88.847656 154.597656 82.054688 Z M 15.386719 204.800781 C 14.503906 201.675781 13.652344 198.480469 13.179688 195.289062 C 34.367188 190.125 56.097656 188.089844 77.65625 184.964844 C 76.875 188.121094 76.199219 191.316406 75.585938 194.507812 C 75.417969 194.507812 75.28125 194.507812 75.109375 194.542969 C 55.144531 197.496094 35.046875 199.976562 15.386719 204.800781 Z M 94.328125 276.089844 C 98.574219 283.425781 104.414062 289.980469 109.980469 296.226562 C 113.070312 299.726562 116.265625 303.121094 119.488281 306.484375 C 120.472656 307.503906 121.492188 308.523438 122.476562 309.542969 C 122.578125 309.644531 122.886719 309.984375 123.191406 310.324219 C 122.171875 316.128906 120.101562 321.632812 116.839844 326.421875 C 116.738281 326.25 116.601562 326.046875 116.433594 325.878906 C 106.113281 315.351562 98.980469 302.546875 95.414062 288.246094 C 94.601562 285.054688 89.675781 286.414062 90.492188 289.605469 C 94.261719 304.71875 101.933594 318.371094 112.835938 329.511719 C 113.175781 329.851562 113.511719 330.054688 113.886719 330.15625 C 112.425781 331.753906 110.796875 333.25 108.996094 334.574219 C 106.824219 336.167969 104.449219 337.492188 102.003906 338.546875 C 96.535156 333.078125 92.019531 326.929688 88.351562 320.136719 C 86.792969 317.25 82.378906 319.832031 83.9375 322.71875 C 87.402344 329.171875 91.679688 335.082031 96.671875 340.378906 C 96.0625 340.550781 95.449219 340.6875 94.804688 340.820312 C 90.695312 341.707031 89.984375 341.296875 87.097656 338.546875 C 85.160156 336.710938 83.363281 334.777344 81.699219 332.703125 C 68.558594 316.707031 62.648438 294.667969 66.554688 274.320312 C 68.828125 276.902344 71.851562 278.769531 75.214844 279.757812 C 74.703125 284.171875 74.636719 288.550781 75.042969 292.96875 C 75.347656 296.226562 80.476562 296.261719 80.171875 292.96875 C 79.796875 288.824219 79.832031 284.714844 80.273438 280.605469 C 85.230469 280.875 90.765625 279.585938 94.328125 276.089844 Z M 89.371094 264.746094 C 89.574219 264.269531 89.644531 263.726562 89.472656 263.113281 C 89.304688 262.332031 89.101562 261.550781 88.929688 260.769531 C 92.191406 262.636719 93.648438 266.304688 92.460938 269.601562 C 92.292969 269.871094 92.15625 270.144531 92.089844 270.449219 C 91.648438 271.332031 90.96875 272.148438 90.117188 272.894531 C 86.925781 275.613281 81.597656 276.054688 77.589844 275.101562 C 73.378906 274.117188 69.507812 271.367188 68.152344 267.085938 C 66.589844 262.230469 69.238281 257.542969 73.992188 256.253906 C 74.160156 257 74.332031 257.714844 74.5 258.460938 C 76.027344 264.132812 81.867188 265.660156 86.996094 266.273438 C 88.351562 266.542969 89.132812 265.730469 89.371094 264.746094 Z M 90.015625 184.183594 C 86.078125 197.257812 83.734375 210.878906 82.613281 224.464844 C 81.628906 236.386719 81.359375 248.816406 83.667969 260.667969 C 81.730469 260.125 79.933594 259.175781 79.390625 257.203125 C 74.125 235.738281 77.183594 211.148438 82.140625 189.921875 C 84.617188 179.222656 87.945312 168.390625 93.546875 158.878906 C 100.304688 147.433594 111.78125 138.535156 122.546875 131.066406 C 136.230469 121.554688 151.03125 113.742188 165.292969 105.117188 C 165.566406 105.046875 165.804688 104.914062 166.007812 104.707031 C 170.386719 104.234375 174.496094 100.632812 175.105469 96.21875 C 175.105469 96.148438 175.105469 96.082031 175.140625 96.015625 C 175.207031 95.640625 175.207031 95.265625 175.105469 94.859375 C 175.105469 94.792969 175.074219 94.722656 175.074219 94.691406 C 176.53125 95.265625 177.925781 96.148438 178.976562 97.339844 C 181.152344 99.785156 179.589844 102.195312 177.515625 104.234375 C 174.460938 107.222656 170.558594 109.261719 166.921875 111.367188 C 159.316406 115.78125 151.609375 119.957031 144.039062 124.375 C 129.675781 132.730469 115.3125 142.101562 104.449219 154.871094 C 97.351562 163.226562 93.175781 173.789062 90.015625 184.183594 Z M 324.269531 117.140625 C 319.648438 146.347656 310.6875 176.949219 286.816406 196.238281 C 273.539062 206.972656 257.378906 214.34375 241.488281 220.355469 C 225.597656 226.367188 209.09375 230.78125 192.355469 233.632812 C 173.441406 236.894531 154.257812 238.050781 135.074219 237.710938 C 133.070312 234.789062 131.238281 231.800781 129.507812 228.710938 C 163.257812 228.4375 197.007812 223.105469 228.652344 211.117188 C 244.40625 205.136719 260.195312 197.972656 273.640625 187.714844 C 285.59375 178.578125 294.695312 166.828125 301.078125 153.242188 C 307.867188 138.742188 311.839844 123.152344 314.488281 107.425781 C 317.882812 110.550781 321.109375 113.777344 324.269531 117.140625 Z M 310.007812 103.382812 C 305.457031 131.8125 296.800781 161.765625 273.949219 180.957031 C 261.351562 191.519531 245.933594 198.820312 230.757812 204.832031 C 215.242188 210.980469 199.144531 215.566406 182.746094 218.65625 C 164.308594 222.121094 145.601562 223.613281 126.890625 223.613281 C 125.636719 221.035156 124.515625 218.453125 123.496094 215.769531 C 156.226562 214.816406 188.824219 209.011719 219.316406 196.953125 C 234.121094 191.078125 248.855469 184.148438 261.519531 174.367188 C 273.066406 165.433594 281.824219 153.957031 288.074219 140.8125 C 294.726562 126.75 298.699219 111.636719 301.382812 96.320312 C 304.335938 98.59375 307.222656 100.9375 310.007812 103.382812 Z M 296.800781 92.855469 C 292.179688 120.265625 283.558594 148.863281 261.792969 167.542969 C 249.773438 177.832031 235.105469 185 220.539062 190.941406 C 205.9375 196.917969 190.792969 201.503906 175.34375 204.730469 C 157.6875 208.433594 139.726562 210.265625 121.695312 210.707031 C 119.691406 204.5625 118.234375 198.242188 117.417969 191.757812 C 128.351562 189.007812 139.046875 185.472656 149.234375 180.550781 C 167.433594 171.785156 183.121094 158.847656 198.46875 145.90625 C 224.851562 123.660156 251.808594 102.09375 279.550781 81.613281 C 285.527344 85.078125 291.265625 88.8125 296.800781 92.855469 Z M 256.359375 92.617188 C 239.28125 105.726562 222.472656 119.175781 205.9375 132.964844 C 189.980469 146.28125 174.425781 160.375 156.398438 170.902344 C 136.976562 182.28125 115.210938 187.648438 93.242188 191.585938 C 94.089844 188.292969 95.042969 185.066406 96.128906 181.875 L 96.128906 181.839844 C 114.292969 178.136719 132.15625 172.296875 148.214844 162.820312 C 165.394531 152.664062 180.402344 139.285156 195.546875 126.410156 C 227.292969 99.410156 261.148438 75.09375 295.746094 51.894531 C 315.40625 38.71875 335.269531 25.914062 355.167969 13.144531 C 356.832031 15.453125 358.527344 17.761719 360.191406 20.105469 C 324.675781 42.964844 289.871094 66.941406 256.359375 92.617188 Z M 256.359375 92.617188 " fill-opacity="1" fill-rule="nonzero"/><path fill="#000000" d="M 366.03125 19.460938 C 363.417969 15.828125 360.804688 12.226562 358.1875 8.59375 C 357.78125 8.015625 357.238281 7.675781 356.660156 7.574219 C 356.390625 7.402344 356.082031 7.300781 355.742188 7.300781 C 355.335938 7.234375 354.894531 7.335938 354.453125 7.539062 C 338.257812 13.007812 322.164062 18.746094 306.101562 24.625 C 289.972656 30.53125 273.949219 36.917969 257.480469 41.808594 C 226.546875 51.011719 195.683594 60.828125 167.296875 76.519531 C 167.058594 76.65625 166.890625 76.792969 166.71875 76.960938 C 166.480469 76.757812 166.277344 76.554688 166.039062 76.382812 C 161.730469 73.019531 155.480469 72.070312 151.710938 76.757812 C 149.03125 80.085938 148.316406 83.890625 148.894531 87.625 C 100.679688 119.824219 55.316406 155.992188 9.171875 191.042969 C 9.171875 191.042969 9.136719 191.042969 9.136719 191.078125 C 8.324219 191.382812 7.675781 192.128906 7.8125 193.351562 C 8.324219 198.515625 9.75 203.609375 11.105469 208.570312 C 11.34375 209.453125 11.886719 209.960938 12.566406 210.199219 C 13.042969 210.4375 13.621094 210.503906 14.265625 210.367188 C 34.128906 205.308594 54.46875 202.726562 74.738281 199.738281 C 73.617188 207.039062 72.902344 214.308594 72.394531 221.238281 C 71.714844 231.15625 71.578125 241.378906 73.074219 251.292969 C 66.113281 252.789062 61.53125 259.617188 62.785156 266.679688 C 62.820312 266.882812 62.886719 267.121094 62.921875 267.324219 C 55.6875 292.289062 63.191406 320.75 80.882812 339.632812 C 82.820312 341.707031 85.195312 344.660156 87.777344 345.984375 C 89.949219 347.105469 92.292969 346.492188 94.703125 346.050781 C 100.710938 344.964844 106.585938 342.589844 111.542969 338.988281 C 120.984375 332.195312 126.652344 321.734375 128.351562 310.324219 C 128.65625 309.644531 128.625 308.863281 128.148438 308.148438 C 124.652344 303.121094 119.320312 298.910156 115.246094 294.394531 C 108.761719 287.226562 101.933594 279.6875 97.453125 271.027344 C 99.726562 264.03125 95.449219 257.136719 88.457031 254.996094 C 88.285156 254.929688 88.117188 254.929688 87.945312 254.894531 C 86.585938 245.046875 86.925781 234.890625 87.707031 225.109375 C 88.457031 215.667969 89.8125 206.226562 91.953125 196.988281 C 98.8125 195.796875 105.671875 194.507812 112.460938 192.910156 C 113.445312 200.042969 115.074219 207.007812 117.382812 213.730469 C 117.453125 214.105469 117.554688 214.445312 117.757812 214.75 C 119.21875 218.960938 120.949219 223.070312 122.953125 227.042969 C 123.019531 227.28125 123.15625 227.488281 123.292969 227.691406 C 125.703125 232.480469 128.453125 237.097656 131.578125 241.511719 C 131.679688 241.648438 131.78125 241.785156 131.882812 241.886719 C 132.289062 242.394531 132.902344 242.769531 133.785156 242.804688 C 169.910156 243.617188 206.277344 238.726562 240.300781 226.265625 C 256.15625 220.457031 272.082031 213.425781 285.796875 203.472656 C 298.53125 194.238281 308.242188 182.246094 315.03125 168.085938 C 322.707031 151.984375 326.816406 134.496094 329.53125 116.96875 C 329.566406 116.800781 329.566406 116.597656 329.566406 116.425781 C 329.632812 115.78125 329.429688 115.066406 328.886719 114.457031 C 315.78125 100.292969 300.738281 88.136719 284.132812 78.285156 C 290.515625 73.597656 296.933594 68.980469 303.421875 64.429688 C 323.726562 50.164062 344.367188 36.375 365.21875 22.960938 C 365.488281 22.789062 365.691406 22.585938 365.828125 22.382812 C 366.542969 21.703125 366.878906 20.617188 366.03125 19.460938 Z M 260.636719 46.222656 C 276.496094 41.433594 291.910156 35.253906 307.460938 29.582031 C 317 26.082031 326.578125 22.652344 336.1875 19.292969 C 307.15625 38.003906 278.292969 57.023438 250.316406 77.234375 C 234.222656 88.882812 218.398438 100.90625 203.015625 113.539062 C 187.160156 126.582031 172.085938 140.742188 155.109375 152.359375 C 137.824219 164.210938 118.640625 171.652344 98.300781 176.167969 C 102.886719 165.027344 109.371094 156.027344 118.914062 147.773438 C 132.765625 135.785156 149.265625 127.363281 165.125 118.328125 C 171.542969 114.660156 181.726562 110.449219 184.785156 103.042969 C 187.535156 96.355469 180.878906 90.582031 174.867188 89.1875 C 174.496094 89.085938 174.121094 89.085938 173.78125 89.152344 C 172.898438 86.199219 171.777344 83.347656 170.148438 80.832031 C 198.601562 65.074219 229.570312 55.597656 260.636719 46.222656 Z M 154.597656 82.054688 C 157.449219 75.875 163.699219 80.253906 166.210938 84.363281 C 168.28125 87.726562 169.164062 91.699219 170.046875 95.503906 C 169.367188 98.050781 167.058594 99.816406 164.378906 99.613281 C 164.207031 99.582031 164.070312 99.613281 163.9375 99.613281 C 157.960938 96.863281 151.472656 88.847656 154.597656 82.054688 Z M 150.488281 92.6875 C 152.390625 96.726562 155.617188 100.363281 159.25 102.773438 C 146.824219 110.144531 134.089844 117.105469 122.070312 125.1875 C 110.730469 132.863281 98.914062 141.796875 91.070312 153.242188 C 85.703125 161.054688 81.867188 170.089844 79.082031 179.597656 C 59.796875 182.484375 40.308594 184.351562 21.226562 188.226562 C 63.804688 155.6875 105.941406 122.503906 150.488281 92.6875 Z M 15.386719 204.800781 C 14.503906 201.675781 13.652344 198.480469 13.179688 195.289062 C 34.367188 190.125 56.097656 188.089844 77.65625 184.964844 C 76.875 188.121094 76.199219 191.316406 75.585938 194.507812 C 75.417969 194.507812 75.28125 194.507812 75.109375 194.542969 C 55.144531 197.496094 35.046875 199.976562 15.386719 204.800781 Z M 94.328125 276.089844 C 98.574219 283.425781 104.414062 289.980469 109.980469 296.226562 C 113.070312 299.726562 116.265625 303.121094 119.488281 306.484375 C 120.472656 307.503906 121.492188 308.523438 122.476562 309.542969 C 122.578125 309.644531 122.886719 309.984375 123.191406 310.324219 C 122.171875 316.128906 120.101562 321.632812 116.839844 326.421875 C 116.738281 326.25 116.601562 326.046875 116.433594 325.878906 C 106.113281 315.351562 98.980469 302.546875 95.414062 288.246094 C 94.601562 285.054688 89.675781 286.414062 90.492188 289.605469 C 94.261719 304.71875 101.933594 318.371094 112.835938 329.511719 C 113.175781 329.851562 113.511719 330.054688 113.886719 330.15625 C 112.425781 331.753906 110.796875 333.25 108.996094 334.574219 C 106.824219 336.167969 104.449219 337.492188 102.003906 338.546875 C 96.535156 333.078125 92.019531 326.929688 88.351562 320.136719 C 86.792969 317.25 82.378906 319.832031 83.9375 322.71875 C 87.402344 329.171875 91.679688 335.082031 96.671875 340.378906 C 96.0625 340.550781 95.449219 340.6875 94.804688 340.820312 C 90.695312 341.707031 89.984375 341.296875 87.097656 338.546875 C 85.160156 336.710938 83.363281 334.777344 81.699219 332.703125 C 68.558594 316.707031 62.648438 294.667969 66.554688 274.320312 C 68.828125 276.902344 71.851562 278.769531 75.214844 279.757812 C 74.703125 284.171875 74.636719 288.550781 75.042969 292.96875 C 75.347656 296.226562 80.476562 296.261719 80.171875 292.96875 C 79.796875 288.824219 79.832031 284.714844 80.273438 280.605469 C 85.230469 280.875 90.765625 279.585938 94.328125 276.089844 Z M 89.371094 264.746094 C 89.574219 264.269531 89.644531 263.726562 89.472656 263.113281 C 89.304688 262.332031 89.101562 261.550781 88.929688 260.769531 C 92.191406 262.636719 93.648438 266.304688 92.460938 269.601562 C 92.292969 269.871094 92.15625 270.144531 92.089844 270.449219 C 91.648438 271.332031 90.96875 272.148438 90.117188 272.894531 C 86.925781 275.613281 81.597656 276.054688 77.589844 275.101562 C 73.378906 274.117188 69.507812 271.367188 68.152344 267.085938 C 66.589844 262.230469 69.238281 257.542969 73.992188 256.253906 C 74.160156 257 74.332031 257.714844 74.5 258.460938 C 76.027344 264.132812 81.867188 265.660156 86.996094 266.273438 C 88.351562 266.542969 89.132812 265.730469 89.371094 264.746094 Z M 90.015625 184.183594 C 86.078125 197.257812 83.734375 210.878906 82.613281 224.464844 C 81.628906 236.386719 81.359375 248.816406 83.667969 260.667969 C 81.730469 260.125 79.933594 259.175781 79.390625 257.203125 C 74.125 235.738281 77.183594 211.148438 82.140625 189.921875 C 84.617188 179.222656 87.945312 168.390625 93.546875 158.878906 C 100.304688 147.433594 111.78125 138.535156 122.546875 131.066406 C 136.230469 121.554688 151.03125 113.742188 165.292969 105.117188 C 165.566406 105.046875 165.804688 104.914062 166.007812 104.707031 C 170.386719 104.234375 174.496094 100.632812 175.105469 96.21875 C 175.105469 96.148438 175.105469 96.082031 175.140625 96.015625 C 175.207031 95.640625 175.207031 95.265625 175.105469 94.859375 C 175.105469 94.792969 175.074219 94.722656 175.074219 94.691406 C 176.53125 95.265625 177.925781 96.148438 178.976562 97.339844 C 181.152344 99.785156 179.589844 102.195312 177.515625 104.234375 C 174.460938 107.222656 170.558594 109.261719 166.921875 111.367188 C 159.316406 115.78125 151.609375 119.957031 144.039062 124.375 C 129.675781 132.730469 115.3125 142.101562 104.449219 154.871094 C 97.351562 163.226562 93.175781 173.789062 90.015625 184.183594 Z M 324.269531 117.140625 C 319.648438 146.347656 310.6875 176.949219 286.816406 196.238281 C 273.539062 206.972656 257.378906 214.34375 241.488281 220.355469 C 225.597656 226.367188 209.09375 230.78125 192.355469 233.632812 C 173.441406 236.894531 154.257812 238.050781 135.074219 237.710938 C 133.070312 234.789062 131.238281 231.800781 129.507812 228.710938 C 163.257812 228.4375 197.007812 223.105469 228.652344 211.117188 C 244.40625 205.136719 260.195312 197.972656 273.640625 187.714844 C 285.59375 178.578125 294.695312 166.828125 301.078125 153.242188 C 307.867188 138.742188 311.839844 123.152344 314.488281 107.425781 C 317.882812 110.550781 321.109375 113.777344 324.269531 117.140625 Z M 310.007812 103.382812 C 305.457031 131.8125 296.800781 161.765625 273.949219 180.957031 C 261.351562 191.519531 245.933594 198.820312 230.757812 204.832031 C 215.242188 210.980469 199.144531 215.566406 182.746094 218.65625 C 164.308594 222.121094 145.601562 223.613281 126.890625 223.613281 C 125.636719 221.035156 124.515625 218.453125 123.496094 215.769531 C 156.226562 214.816406 188.824219 209.011719 219.316406 196.953125 C 234.121094 191.078125 248.855469 184.148438 261.519531 174.367188 C 273.066406 165.433594 281.824219 153.957031 288.074219 140.8125 C 294.726562 126.75 298.699219 111.636719 301.382812 96.320312 C 304.335938 98.59375 307.222656 100.9375 310.007812 103.382812 Z M 296.800781 92.855469 C 292.179688 120.265625 283.558594 148.863281 261.792969 167.542969 C 249.773438 177.832031 235.105469 185 220.539062 190.941406 C 205.9375 196.917969 190.792969 201.503906 175.34375 204.730469 C 157.6875 208.433594 139.726562 210.265625 121.695312 210.707031 C 119.691406 204.5625 118.234375 198.242188 117.417969 191.757812 C 128.351562 189.007812 139.046875 185.472656 149.234375 180.550781 C 167.433594 171.785156 183.121094 158.847656 198.46875 145.90625 C 224.851562 123.660156 251.808594 102.09375 279.550781 81.613281 C 285.527344 85.078125 291.265625 88.8125 296.800781 92.855469 Z M 256.359375 92.617188 C 239.28125 105.726562 222.472656 119.175781 205.9375 132.964844 C 189.980469 146.28125 174.425781 160.375 156.398438 170.902344 C 136.976562 182.28125 115.210938 187.648438 93.242188 191.585938 C 94.089844 188.292969 95.042969 185.066406 96.128906 181.875 L 96.128906 181.839844 C 114.292969 178.136719 132.15625 172.296875 148.214844 162.820312 C 165.394531 152.664062 180.402344 139.285156 195.546875 126.410156 C 227.292969 99.410156 261.148438 75.09375 295.746094 51.894531 C 315.40625 38.71875 335.269531 25.914062 355.167969 13.144531 C 356.832031 15.453125 358.527344 17.761719 360.191406 20.105469 C 324.675781 42.964844 289.871094 66.941406 256.359375 92.617188 Z M 256.359375 92.617188 " fill-opacity="1" fill-rule="nonzero"/></svg>